<svg width="78" height="85" viewBox="0 0 78 85" fill="none" xmlns="http://www.w3.org/2000/svg">
<g clip-path="url(#clip0_22_48)">
<path d="M78 42.0396C78 46.3821 78.0235 50.7011 78 55.0435C77.9531 61.0526 75.3945 65.6298 70.1601 68.6343C62.3671 73.0941 54.5507 77.5304 46.7108 81.8964C41.5468 84.7835 36.3124 84.7366 31.1718 81.826C23.4493 77.4835 15.7502 73.1176 8.02768 68.7282C2.69936 65.7002 0.0234681 61.0995 -4.66779e-06 54.9731C-0.0234774 46.429 -4.66779e-06 37.8615 -4.66779e-06 29.3174C-4.66779e-06 23.0267 2.69936 18.3321 8.19199 15.2337C15.8911 10.8913 23.5667 6.52534 31.2657 2.18287C36.3593 -0.704275 41.5233 -0.751221 46.6404 2.13593C54.5272 6.54881 62.3906 11.0086 70.2305 15.4919C75.3711 18.426 77.9061 22.9563 77.9765 28.8479C78.047 33.2608 78 37.6502 78 42.0396ZM4.53024 41.9927C4.53024 46.3821 4.53024 50.7715 4.53024 55.1844C4.53024 59.5034 6.43154 62.6957 10.1872 64.8082C17.9332 69.1976 25.6792 73.5635 33.4018 77.953C37.1105 80.0655 40.7957 80.1124 44.5044 78.0234C52.3443 73.6105 60.1842 69.1741 68.0241 64.7143C71.6154 62.6487 73.4698 59.5034 73.4932 55.3487C73.5167 46.4995 73.5167 37.6502 73.4932 28.801C73.4932 24.6463 71.6389 21.4775 68.0241 19.4354C60.1842 14.9521 52.2973 10.5157 44.434 6.07935C40.7957 4.03722 37.1339 4.08417 33.4956 6.14977C25.7496 10.5392 18.0271 14.9051 10.2811 19.2945C6.47848 21.4305 4.53024 24.6463 4.55371 29.0357C4.53024 33.3078 4.53024 37.6502 4.53024 41.9927Z" fill="#F37342"/>
<path d="M7.53474 41.9694C7.53474 37.6035 7.53474 33.2375 7.53474 28.8716C7.53474 25.7497 8.89616 23.4494 11.619 21.9236C19.412 17.5108 27.2049 13.1214 34.9744 8.685C37.6503 7.15927 40.3027 7.1358 42.9786 8.63805C50.8185 13.0744 58.6584 17.5108 66.4983 21.9471C69.1742 23.4728 70.5122 25.7732 70.4887 28.8716C70.4887 37.6504 70.4887 46.4527 70.4887 55.2315C70.4887 58.283 69.1742 60.5833 66.5218 62.0856C58.6584 66.5454 50.7951 71.0052 42.9317 75.4416C40.2793 76.9438 37.6503 76.8969 34.9979 75.3946C27.2753 71.0052 19.5293 66.6158 11.7833 62.2733C8.91964 60.6537 7.4878 58.283 7.51127 54.9733C7.55822 50.6308 7.53474 46.3119 7.53474 41.9694ZM16.5013 36.7819C16.5483 36.7819 16.5952 36.7584 16.6422 36.7584C16.783 36.9932 16.9239 37.2514 17.0412 37.4861C19.7875 42.9787 22.5338 48.4713 25.2802 53.964C25.421 54.2456 25.5618 54.5508 25.7261 54.809C26.1017 55.3723 26.6416 55.654 27.2988 55.4897C28.003 55.3254 28.402 54.8559 28.449 54.1283C28.4725 53.8936 28.449 53.6588 28.449 53.4241C28.449 45.8424 28.449 38.2607 28.449 30.679C28.449 30.4208 28.449 30.1391 28.4255 29.8809C28.3316 29.1063 27.8622 28.6603 27.111 28.5664C26.3599 28.4725 25.7966 28.8481 25.5618 29.5758C25.4445 29.9279 25.4445 30.3269 25.4445 30.7025C25.4445 35.9134 25.4445 41.1244 25.4445 46.3353C25.4445 46.6405 25.4445 46.9456 25.4445 47.2508C25.1628 47.0395 25.022 46.8048 24.9046 46.5466C22.1348 41.0305 19.3885 35.5144 16.6187 29.9983C16.4544 29.6931 16.337 29.2706 16.0788 29.1063C15.6328 28.8481 15.0226 28.5195 14.6235 28.6369C14.1775 28.7777 13.8254 29.3645 13.4968 29.8105C13.3795 29.9748 13.4734 30.2565 13.4734 30.4912C13.4734 38.1668 13.4734 45.8424 13.4734 53.518C13.4734 53.7527 13.4499 53.9874 13.4968 54.2222C13.5907 54.9498 14.2245 55.5132 14.9287 55.5367C15.6328 55.5601 16.2901 55.0202 16.4309 54.3161C16.4779 54.0344 16.4544 53.7292 16.4544 53.4476C16.4544 48.1662 16.4544 42.9083 16.4544 37.6269C16.5013 37.3453 16.5013 37.0636 16.5013 36.7819ZM36.0542 31.524C36.4063 31.524 36.7349 31.524 37.04 31.524C40.1384 31.524 43.2368 31.524 46.3587 31.524C47.368 31.524 47.9549 30.9372 47.9783 30.0687C47.9783 29.2237 47.3915 28.5664 46.4761 28.5664C42.4857 28.543 38.5188 28.543 34.5284 28.5664C33.5895 28.5664 33.0262 29.2002 33.0027 30.1391C33.0027 38.0729 33.0027 46.0067 33.0027 53.964C33.0027 54.6447 33.2844 55.1611 33.9181 55.4193C34.9744 55.8887 35.9837 55.1376 35.9837 53.8231C36.0072 50.7482 35.9837 47.6733 35.9837 44.5983C35.9837 44.2932 35.9837 43.9646 35.9837 43.5655C37.7911 43.5655 39.5047 43.5655 41.2416 43.5655C42.7439 43.5655 43.4716 43.0726 43.4716 42.0633C43.4716 41.054 42.7439 40.561 41.2416 40.561C39.5281 40.561 37.7911 40.561 36.0307 40.561C36.0542 37.5096 36.0542 34.552 36.0542 31.524ZM55.5131 31.524C55.5131 31.9465 55.5131 32.2517 55.5131 32.5568C55.5131 35.0215 55.5131 37.4861 55.5131 39.9273C55.5131 44.5514 55.5131 49.1755 55.5131 53.8231C55.5131 54.8559 56.1234 55.5367 56.9919 55.5367C57.8604 55.5367 58.4707 54.8559 58.4941 53.8231C58.4941 53.5884 58.4941 53.3537 58.4941 53.119C58.4941 46.2884 58.4941 39.4578 58.4941 32.6507C58.4941 32.2986 58.4941 31.97 58.4941 31.524C59.9729 31.524 61.3813 31.524 62.7662 31.524C63.4234 31.524 63.9868 31.3362 64.2919 30.7025C64.8552 29.6227 64.0806 28.5195 62.6723 28.5195C58.8932 28.496 55.114 28.5195 51.3349 28.5195C50.1378 28.5195 49.4806 29.0828 49.4806 30.0452C49.4806 31.0076 50.1143 31.524 51.3584 31.524C52.7198 31.524 54.0578 31.524 55.5131 31.524Z" fill="#F37342"/>
</g>
<defs>
<clipPath id="clip0_22_48">
<rect width="78" height="84.0325" fill="white"/>
</clipPath>
</defs>
</svg>
