<svg width="71" height="77" viewBox="0 0 71 77" fill="none" xmlns="http://www.w3.org/2000/svg">
<g clip-path="url(#clip0_151_2357)">
<path d="M32.9298 0C33.509 0.378984 34.2275 0.643672 34.6432 1.15299C38.0299 5.3138 42.3449 8.15117 47.2977 10.0982C51.8488 11.8889 56.5957 12.6088 61.4698 12.6408C63.4174 12.6549 64.6425 13.9202 64.6526 15.8772C64.6546 16.4287 64.6586 16.9801 64.6486 17.5315C64.6264 18.8089 64.6264 20.0882 64.5597 21.3635C64.4629 23.2043 63.1248 24.4395 61.381 24.3593C59.7079 24.2811 58.5151 22.9075 58.5353 21.0988C58.5454 20.2787 58.5373 19.4585 58.5373 18.5763C48.5772 17.8965 39.707 14.616 32.3323 7.6218C25.0061 14.5799 16.1298 17.9065 6.10521 18.5783C6.08704 18.7607 6.05677 18.9011 6.05879 19.0435C6.23639 27.0302 6.99324 34.9428 9.22744 42.6548C11.2396 49.6008 14.3598 55.9614 19.3187 61.3353C22.9071 65.2234 27.1434 68.2272 31.9247 70.4811C32.1527 70.5893 32.5362 70.6014 32.7461 70.4811C34.8875 69.2719 37.0026 68.0167 39.1379 66.7955C39.5718 66.5468 39.5819 66.1979 39.5819 65.7829C39.5758 59.8434 39.5758 53.904 39.5779 47.9646C39.5779 45.7087 40.7585 44.5236 43.0049 44.5176C44.0362 44.5156 45.0675 44.5176 46.224 44.5176C46.224 44.2329 46.224 43.9702 46.224 43.7095C46.224 41.4797 46.2159 39.2479 46.226 37.0182C46.2482 32.1014 50.2887 28.1351 55.2718 28.1311C60.2568 28.1271 64.3095 32.0753 64.3458 36.9921C64.364 39.4685 64.3498 41.947 64.3498 44.5176C65.474 44.5176 66.5457 44.5156 67.6194 44.5176C69.7769 44.5236 70.9959 45.7268 70.998 47.8623C71.002 54.1527 71.002 60.443 70.998 66.7333C70.9959 68.8709 69.7769 70.08 67.6234 70.08C60.2467 70.082 52.8701 70.076 45.4934 70.0941C45.124 70.0941 44.68 70.2003 44.3954 70.4169C40.8615 73.1119 37.0308 75.2855 32.9298 76.998C32.5261 76.998 32.1245 76.998 31.7208 76.998C31.7027 76.9819 31.6845 76.9599 31.6623 76.9499C22.9515 73.3164 15.7706 67.7941 10.4929 59.9337C6.3696 53.7937 3.83468 47.0021 2.25641 39.8295C0.550985 32.0873 0.00403931 24.2309 2.80802e-06 16.3224C-0.00201544 13.7557 1.0838 12.6589 3.64294 12.6308C8.10327 12.5827 12.4607 11.9129 16.6566 10.3709C21.672 8.52615 26.0899 5.775 29.5532 1.65831C30.1688 0.926406 30.8126 0.314818 31.7208 0.00200521C32.1245 0 32.5281 0 32.9298 0ZM64.9028 64.0323C64.9028 59.5046 64.9028 55.0369 64.9028 50.5894C58.4485 50.5894 52.0486 50.5894 45.6609 50.5894C45.6609 55.0991 45.6609 59.5487 45.6609 64.0323C52.0829 64.0323 58.4666 64.0323 64.9028 64.0323ZM58.2931 44.4795C58.2931 41.8467 58.3556 39.272 58.2689 36.6993C58.2184 35.1954 56.739 34.0845 55.1567 34.1447C53.5724 34.2068 52.3191 35.418 52.2726 36.954C52.2525 37.6538 52.2666 38.3556 52.2666 39.0574C52.2666 40.8521 52.2666 42.6488 52.2666 44.4775C54.2949 44.4795 56.2466 44.4795 58.2931 44.4795Z" fill="#E9F5F8"/>
</g>
<defs>
<clipPath id="clip0_151_2357">
<rect width="71" height="77" fill="white"/>
</clipPath>
</defs>
</svg>
