<svg width="14" height="16" viewBox="0 0 14 16" fill="none" xmlns="http://www.w3.org/2000/svg">
<path d="M9.72969 13.38C9.37745 14.8697 8.14113 15.6011 7.02362 15.6113C5.90611 15.6215 4.6322 14.905 4.26604 13.38H1.16457C0.693525 13.38 0.329219 13.1837 0.121774 12.7586C-0.0856709 12.3335 -0.0174507 11.9232 0.268425 11.5366C0.611846 11.0702 0.935312 10.589 1.26203 10.1105C1.39615 9.91328 1.44023 9.68774 1.43977 9.44966C1.43745 8.16137 1.41053 6.87261 1.44488 5.58571C1.50845 3.19754 2.63014 1.45769 4.80113 0.475227C7.93926 -0.944866 11.6621 0.957874 12.4121 4.33037C12.5042 4.76685 12.5518 5.21155 12.5541 5.65764C12.5727 6.91067 12.5638 8.16369 12.5587 9.41671C12.552 9.70228 12.6383 9.98231 12.8047 10.2145C13.1342 10.6786 13.4586 11.1426 13.7825 11.6067C14.0359 11.9715 14.0726 12.3627 13.8753 12.7586C13.6781 13.1544 13.3426 13.3698 12.9008 13.3735C11.9104 13.3828 10.9201 13.3767 9.93064 13.3772L9.72969 13.38ZM12.8678 12.2574C12.5318 11.7719 12.2125 11.3041 11.8863 10.8414C11.5914 10.428 11.4367 9.93097 11.4449 9.42321C11.4505 8.17622 11.4482 6.92877 11.4449 5.68177C11.4449 5.49104 11.4361 5.29891 11.4171 5.1091C11.1386 2.38679 8.45392 0.552729 5.82118 1.28552C4.88329 1.54309 4.05573 2.10111 3.46536 2.87405C2.87498 3.64699 2.55437 4.59221 2.55264 5.56483C2.54568 6.85266 2.548 8.14049 2.55264 9.42785C2.56049 9.93585 2.40514 10.433 2.10944 10.8461C1.81521 11.2638 1.52748 11.6814 1.23697 12.1024C1.20541 12.1488 1.17431 12.1952 1.13162 12.2574H12.8678ZM8.54581 13.3888H5.45084C5.6258 14.02 6.31079 14.4998 7.01712 14.4933C7.70768 14.4873 8.38385 14.0009 8.54581 13.3888Z" fill="#303549"/>
</svg>
