<svg width="78" height="78" viewBox="0 0 78 78" fill="none" xmlns="http://www.w3.org/2000/svg">
<g clip-path="url(#clip0_22_39)">
<path d="M0 34.4206C0.335812 33.6116 0.94638 33.2911 1.80117 33.3369C2.56438 33.3674 3.32759 33.3216 4.0908 33.3522C4.96086 33.3827 5.43405 33.8253 5.55617 34.6954C5.58669 35.0007 5.58669 35.306 5.58669 35.6113C5.58669 46.2962 5.60196 56.9811 5.58669 67.666C5.58669 69.5283 6.19726 71.0242 7.90685 71.8484C8.54795 72.1537 9.31116 72.3216 10.0286 72.3216C29.353 72.3521 48.6622 72.3521 67.9867 72.3369C70.7495 72.3369 72.4286 70.551 72.4286 67.666C72.4286 57.7138 72.4286 47.7615 72.4286 37.8093C72.4286 36.8629 72.4133 35.9318 72.4286 34.9854C72.4591 33.8253 72.9628 33.3369 74.1382 33.3369C74.9319 33.3216 75.7104 33.3216 76.5041 33.3369C77.4352 33.3674 77.9542 33.8864 78 34.8175C78.0153 35.0159 78 35.2296 78 35.4281C78 48.8758 78 62.3388 78 75.7866C78 77.5114 77.6184 77.893 75.9088 77.893C51.2877 77.893 26.6665 77.893 2.0454 77.9083C1.17534 77.9083 0.442662 77.7404 0 76.9161C0 62.7662 0 48.6011 0 34.4206Z" fill="#F37342"/>
<path d="M27.0176 24.9875C24.1022 24.9875 21.1867 24.9722 18.256 24.9875C17.5233 24.9875 16.8975 24.8654 16.5769 24.1022C16.2716 23.3542 16.638 22.8505 17.1417 22.362C18.546 20.973 19.9503 19.5687 21.3393 18.1644C22.2552 17.2485 22.2552 16.5311 21.3393 15.6153C18.7139 12.9746 16.0732 10.3339 13.4325 7.69315C12.3182 6.57887 12.3335 6.01409 13.4478 4.88454C14.8521 3.48023 16.2411 2.07593 17.6454 0.686888C18.5613 -0.228963 19.2481 -0.228963 20.1793 0.686888C22.8047 3.29706 25.4149 5.9225 28.0403 8.54795C29.1851 9.69276 29.7804 9.69276 30.91 8.57847C32.2685 7.21996 33.6423 5.86145 35.0008 4.48767C35.474 4.01448 35.993 3.67867 36.6951 3.96869C37.4125 4.25871 37.611 4.85401 37.611 5.57143C37.611 11.4634 37.611 17.3401 37.611 23.2321C37.611 24.4838 37.092 24.9875 35.8556 25.0027C32.9096 24.9875 29.9636 24.9875 27.0176 24.9875Z" fill="#F37342"/>
<path d="M19.4924 44.4799C18.1949 44.4799 16.9127 44.4951 15.6153 44.4799C14.501 44.4646 13.9515 43.9762 13.9362 42.8771C13.9057 40.2364 13.9057 37.611 13.9362 34.9703C13.9515 33.856 14.4857 33.3523 15.6 33.3523C18.2102 33.337 20.8204 33.337 23.4306 33.3523C24.5143 33.3523 25.0486 33.8407 25.0638 34.9092C25.0944 37.5652 25.0944 40.2364 25.0638 42.8924C25.0486 43.9914 24.4991 44.4646 23.3695 44.4799C22.072 44.4951 20.7898 44.4799 19.4924 44.4799Z" fill="#F37342"/>
<path d="M58.5229 33.3522C59.8204 33.3522 61.1026 33.337 62.4 33.3522C63.5143 33.3675 64.0486 33.856 64.0638 34.9702C64.0944 37.611 64.0944 40.2364 64.0638 42.8771C64.0486 43.9761 63.4991 44.4798 62.3848 44.4798C59.8051 44.4951 57.2102 44.4951 54.6306 44.4798C53.4705 44.4798 52.9362 43.9761 52.9362 42.816C52.9057 40.2059 52.9057 37.5957 52.9362 34.9855C52.9515 33.8407 53.4857 33.3522 54.6611 33.3522C55.9433 33.337 57.2407 33.3522 58.5229 33.3522Z" fill="#F37342"/>
<path d="M19.5229 52.8447C20.8204 52.8447 22.1026 52.8294 23.4 52.8447C24.5143 52.8599 25.0486 53.3484 25.0638 54.4627C25.0944 57.1034 25.0944 59.7288 25.0638 62.3695C25.0486 63.4685 24.4991 63.9723 23.3848 63.9723C20.8051 63.9875 18.2102 63.9875 15.6306 63.9723C14.4705 63.9723 13.9362 63.4685 13.9362 62.3085C13.9057 59.6983 13.9057 57.0881 13.9362 54.4779C13.9515 53.3331 14.4857 52.8447 15.6611 52.8447C16.9433 52.8447 18.2407 52.8447 19.5229 52.8447Z" fill="#F37342"/>
<path d="M39.0305 52.8447C40.328 52.8447 41.6102 52.8294 42.9076 52.8447C44.0219 52.8599 44.5562 53.3331 44.5714 54.4627C44.602 57.1034 44.602 59.7288 44.5714 62.3695C44.5562 63.4838 44.0067 63.9723 42.8924 63.9723C40.3127 63.9875 37.7178 63.9875 35.1382 63.9723C33.9781 63.9723 33.4439 63.4685 33.4286 62.3237C33.3981 59.7136 33.3981 57.1034 33.4286 54.4932C33.4439 53.3331 33.9781 52.8599 35.1382 52.8599C36.4356 52.8447 37.7331 52.8447 39.0305 52.8447Z" fill="#F37342"/>
<path d="M58.584 52.8447C59.8814 52.8447 61.1636 52.8294 62.4611 52.8447C63.4991 52.8599 64.0486 53.3331 64.0638 54.3558C64.0944 57.0423 64.0944 59.7288 64.0638 62.4153C64.0486 63.4685 63.4991 63.957 62.4153 63.9723C59.8051 63.9875 57.1949 63.9875 54.5848 63.9723C53.5163 63.9723 52.9515 63.4838 52.9362 62.4153C52.9057 59.7593 52.9057 57.0881 52.9362 54.4321C52.9515 53.3331 53.501 52.8599 54.6306 52.8447C55.9433 52.8447 57.256 52.8447 58.584 52.8447Z" fill="#F37342"/>
</g>
<defs>
<clipPath id="clip0_22_39">
<rect width="78" height="77.9237" fill="white"/>
</clipPath>
</defs>
</svg>
