<svg width="22" height="17" viewBox="0 0 22 17" fill="none" xmlns="http://www.w3.org/2000/svg">
<path d="M0 13.1237C0 12.5131 0 11.9024 0 11.2917C0.0126305 11.1996 0.0275574 11.1081 0.0378914 11.0155C0.115971 10.3308 0.161326 9.63971 0.276722 8.96143C0.73429 6.26581 1.78434 3.81144 3.27129 1.54178C3.32296 1.46311 3.40678 1.39027 3.49175 1.35123C4.85125 0.720155 6.27103 0.28487 7.73961 0.00691668C7.85845 -0.0152263 7.92562 0.0121611 7.97786 0.122876C8.11393 0.410735 8.27238 0.688688 8.39295 0.982375C8.46184 1.15078 8.54681 1.17991 8.71445 1.1636C9.36894 1.09892 10.0257 1.0051 10.6814 1.01034C11.5592 1.01792 12.437 1.10416 13.3142 1.16651C13.4618 1.177 13.541 1.15311 13.6042 1.00219C13.7293 0.702091 13.8861 0.415397 14.0233 0.120545C14.0755 0.0080821 14.1456 -0.0140609 14.2632 0.0080821C15.7117 0.277877 17.1103 0.710831 18.452 1.32559C18.5674 1.37862 18.6816 1.47535 18.7522 1.58198C21.2427 5.35037 22.3307 9.48879 21.9144 14.0182C21.907 14.0992 21.8559 14.2012 21.7927 14.2478C20.1743 15.4493 18.4112 16.3613 16.4971 16.972C16.3553 17.0174 16.2893 16.979 16.2198 16.8653C15.9586 16.4405 15.6893 16.0204 15.4298 15.5944C15.3294 15.4301 15.2473 15.2541 15.1577 15.0851C15.7818 14.7804 16.3823 14.4873 16.9909 14.1901C16.7285 13.8119 16.5947 13.7682 16.2589 13.9162C13.8229 14.989 11.2991 15.3124 8.68115 14.8282C7.63512 14.6347 6.62813 14.3154 5.655 13.8818C5.57004 13.844 5.44947 13.8008 5.38058 13.8346C5.24509 13.9005 5.13486 14.0194 4.95574 14.1627C5.61539 14.4861 6.21993 14.7827 6.87327 15.1032C6.48575 15.7215 6.10855 16.3193 5.73596 16.9195C5.65845 17.0442 5.56831 16.9906 5.47416 16.9603C3.58246 16.3525 1.83486 15.4557 0.235386 14.2653C0.157881 14.2076 0.101618 14.0852 0.0866909 13.985C0.0436325 13.7 0.0269833 13.411 0 13.1237ZM16.6716 9.3233C16.6148 9.04826 16.5861 8.76273 16.4965 8.49934C16.0246 7.10958 14.4481 6.6539 13.4181 7.59964C12.4565 8.48244 12.4462 10.1729 13.3969 11.072C14.1622 11.7957 15.2662 11.773 15.9965 11.0126C16.4443 10.5458 16.6343 9.97418 16.6716 9.3233ZM9.38157 9.31339C9.29028 8.97367 9.24091 8.6153 9.10025 8.29773C8.54164 7.03732 7.04493 6.70751 6.09018 7.61537C5.15266 8.50692 5.13601 10.1292 6.05516 11.0417C6.80897 11.7899 7.92619 11.7847 8.66909 11.0242C9.12781 10.5563 9.32071 9.97885 9.38157 9.31339Z" fill="#7C96B6"/>
</svg>
