<svg width="21" height="14" viewBox="0 0 21 14" fill="none" xmlns="http://www.w3.org/2000/svg">
<g clip-path="url(#clip0_40_566)">
<path d="M21 7.12629C20.8973 7.30364 20.8151 7.49174 20.6918 7.65297C19.2123 9.59308 17.4966 11.2537 15.4315 12.5006C14.0753 13.3175 12.6216 13.871 11.0445 13.9785C9.76028 14.0699 8.51199 13.8441 7.30993 13.3658C5.50171 12.6457 3.94007 11.501 2.51712 10.1466C1.68493 9.35124 0.919516 8.48061 0.226023 7.55086C-0.0719229 7.15316 -0.0719229 6.84683 0.226023 6.44913C1.71575 4.4714 3.45205 2.7785 5.54281 1.51017C7.18664 0.515926 8.93836 -0.0806189 10.8647 0.0107438C12.1849 0.0698609 13.4332 0.44606 14.6147 1.05335C17.101 2.33243 19.0891 4.22955 20.7894 6.48137C20.8767 6.59423 20.9281 6.73934 20.9949 6.8737C21 6.95431 21 7.0403 21 7.12629ZM1.56678 6.98118C1.64383 7.07792 1.6952 7.15316 1.75685 7.21765C2.39383 7.90556 3.00513 8.62034 3.68322 9.26525C4.98287 10.5067 6.43151 11.5171 8.11644 12.119C9.12329 12.4791 10.161 12.6295 11.2243 12.5059C12.5856 12.3501 13.8236 11.818 14.9897 11.0925C16.5051 10.1413 17.7997 8.9213 18.9709 7.55086C19.125 7.3735 19.2688 7.1854 19.4332 6.98656C19.0325 6.52974 18.6524 6.0783 18.2517 5.65374C16.9007 4.2188 15.4007 2.98809 13.6182 2.17658C12.7295 1.77351 11.8048 1.51017 10.8288 1.4618C9.33904 1.38656 7.96747 1.82188 6.66267 2.53128C5.20377 3.3213 3.94007 4.38541 2.79452 5.59999C2.37328 6.04068 1.97774 6.51362 1.56678 6.98118Z" fill="#F37342"/>
<path d="M14.6507 7.01882C14.6352 9.42649 12.7602 11.3666 10.4743 11.3397C8.17805 11.3129 6.33387 9.36738 6.35442 6.9812C6.36983 4.57352 8.24483 2.63341 10.5308 2.66028C12.8219 2.68715 14.6661 4.63264 14.6507 7.01882ZM13.2637 7.00807C13.2739 5.41728 12.0462 4.12208 10.5102 4.10596C8.98969 4.08984 7.72599 5.40654 7.73113 7.0027C7.73627 8.59886 8.96914 9.89406 10.4948 9.89406C12.0154 9.89943 13.2585 8.60423 13.2637 7.00807Z" fill="#F37342"/>
</g>
<defs>
<clipPath id="clip0_40_566">
<rect width="21" height="14" fill="white"/>
</clipPath>
</defs>
</svg>
