<svg width="21" height="21" viewBox="0 0 21 21" fill="none" xmlns="http://www.w3.org/2000/svg">
<g clip-path="url(#clip0_211_19)">
<path d="M20.2323 0C20.5303 0.111993 20.7903 0.276465 20.9139 0.579711C21.0823 0.993057 21.0022 1.36366 20.6913 1.69342C20.0223 2.40298 19.3604 3.11957 18.6954 3.83291C16.8366 5.82768 14.9793 7.82435 13.1166 9.81587C12.8142 10.1391 12.6704 10.5024 12.6726 10.9455C12.6814 12.7772 12.6696 14.6088 12.6811 16.4405C12.6838 16.8895 12.552 17.262 12.2537 17.5977C11.3274 18.6392 10.4115 19.6896 9.49044 20.7357C9.29194 20.961 9.04889 21.0625 8.7506 20.9608C8.46298 20.8628 8.32928 20.6462 8.30577 20.3554C8.29976 20.2807 8.3014 20.2052 8.3014 20.13C8.30112 17.0681 8.29839 14.0064 8.3044 10.9445C8.30522 10.5105 8.1729 10.1494 7.87488 9.83021C5.38061 7.15996 2.90601 4.47133 0.388771 1.82245C-0.231859 1.16943 -0.106366 0.279441 0.743378 0C7.23976 0 13.7359 0 20.2323 0Z" fill="#F37342"/>
</g>
<defs>
<clipPath id="clip0_211_19">
<rect width="21" height="21" fill="white"/>
</clipPath>
</defs>
</svg>
