<svg width="1920" height="19" viewBox="0 0 1920 19" fill="none" xmlns="http://www.w3.org/2000/svg">
<path d="M1913.5 19L1905.27 4.75L1921.73 4.75L1913.5 19Z" fill="white"/>
<path d="M1529.5 19L1521.27 4.75L1537.73 4.75L1529.5 19Z" fill="white"/>
<path d="M1145.5 19L1137.27 4.75L1153.73 4.75L1145.5 19Z" fill="white"/>
<path d="M761.5 19L753.273 4.75L769.727 4.75L761.5 19Z" fill="white"/>
<path d="M377.5 19L369.273 4.75L385.727 4.75L377.5 19Z" fill="white"/>
<path d="M1721.5 19L1713.27 4.75L1729.73 4.75L1721.5 19Z" fill="white"/>
<path d="M1337.5 19L1329.27 4.75L1345.73 4.75L1337.5 19Z" fill="white"/>
<path d="M953.5 19L945.273 4.75L961.727 4.75L953.5 19Z" fill="white"/>
<path d="M569.5 19L561.273 4.75L577.727 4.75L569.5 19Z" fill="white"/>
<path d="M185.5 19L177.273 4.75L193.727 4.75L185.5 19Z" fill="white"/>
<path d="M1849.5 19L1841.27 4.75L1857.73 4.75L1849.5 19Z" fill="white"/>
<path d="M1465.5 19L1457.27 4.75L1473.73 4.75L1465.5 19Z" fill="white"/>
<path d="M1081.5 19L1073.27 4.75L1089.73 4.75L1081.5 19Z" fill="white"/>
<path d="M697.5 19L689.273 4.75L705.727 4.75L697.5 19Z" fill="white"/>
<path d="M313.5 19L305.273 4.75L321.727 4.75L313.5 19Z" fill="white"/>
<path d="M1657.5 19L1649.27 4.75L1665.73 4.75L1657.5 19Z" fill="white"/>
<path d="M1273.5 19L1265.27 4.75L1281.73 4.75L1273.5 19Z" fill="white"/>
<path d="M889.5 19L881.273 4.75L897.727 4.75L889.5 19Z" fill="white"/>
<path d="M505.5 19L497.273 4.75L513.727 4.75L505.5 19Z" fill="white"/>
<path d="M121.5 19L113.273 4.75L129.727 4.75L121.5 19Z" fill="white"/>
<path d="M1785.5 19L1777.27 4.75L1793.73 4.75L1785.5 19Z" fill="white"/>
<path d="M1401.5 19L1393.27 4.75L1409.73 4.75L1401.5 19Z" fill="white"/>
<path d="M1017.5 19L1009.27 4.75L1025.73 4.75L1017.5 19Z" fill="white"/>
<path d="M633.5 19L625.273 4.75L641.727 4.75L633.5 19Z" fill="white"/>
<path d="M249.5 19L241.273 4.75L257.727 4.75L249.5 19Z" fill="white"/>
<path d="M1593.5 19L1585.27 4.75L1601.73 4.75L1593.5 19Z" fill="white"/>
<path d="M1209.5 19L1201.27 4.75L1217.73 4.75L1209.5 19Z" fill="white"/>
<path d="M825.5 19L817.273 4.75L833.727 4.75L825.5 19Z" fill="white"/>
<path d="M441.5 19L433.273 4.75L449.727 4.75L441.5 19Z" fill="white"/>
<path d="M57.5 19L49.2728 4.75L65.7272 4.75L57.5 19Z" fill="white"/>
<path d="M1881.5 19L1873.27 4.75L1889.73 4.75L1881.5 19Z" fill="white"/>
<path d="M1497.5 19L1489.27 4.75L1505.73 4.75L1497.5 19Z" fill="white"/>
<path d="M1113.5 19L1105.27 4.75L1121.73 4.75L1113.5 19Z" fill="white"/>
<path d="M729.5 19L721.273 4.75L737.727 4.75L729.5 19Z" fill="white"/>
<path d="M345.5 19L337.273 4.75L353.727 4.75L345.5 19Z" fill="white"/>
<path d="M1689.5 19L1681.27 4.75L1697.73 4.75L1689.5 19Z" fill="white"/>
<path d="M1305.5 19L1297.27 4.75L1313.73 4.75L1305.5 19Z" fill="white"/>
<path d="M921.5 19L913.273 4.75L929.727 4.75L921.5 19Z" fill="white"/>
<path d="M537.5 19L529.273 4.75L545.727 4.75L537.5 19Z" fill="white"/>
<path d="M153.5 19L145.273 4.75L161.727 4.75L153.5 19Z" fill="white"/>
<path d="M1817.5 19L1809.27 4.75L1825.73 4.75L1817.5 19Z" fill="white"/>
<path d="M1433.5 19L1425.27 4.75L1441.73 4.75L1433.5 19Z" fill="white"/>
<path d="M1049.5 19L1041.27 4.75L1057.73 4.75L1049.5 19Z" fill="white"/>
<path d="M665.5 19L657.273 4.75L673.727 4.75L665.5 19Z" fill="white"/>
<path d="M281.5 19L273.273 4.75L289.727 4.75L281.5 19Z" fill="white"/>
<path d="M1625.5 19L1617.27 4.75L1633.73 4.75L1625.5 19Z" fill="white"/>
<path d="M1241.5 19L1233.27 4.75L1249.73 4.75L1241.5 19Z" fill="white"/>
<path d="M857.5 19L849.273 4.75L865.727 4.75L857.5 19Z" fill="white"/>
<path d="M473.5 19L465.273 4.75L481.727 4.75L473.5 19Z" fill="white"/>
<path d="M89.5 19L81.2728 4.75L97.7272 4.75L89.5 19Z" fill="white"/>
<path d="M1753.5 19L1745.27 4.75L1761.73 4.75L1753.5 19Z" fill="white"/>
<path d="M1369.5 19L1361.27 4.75L1377.73 4.75L1369.5 19Z" fill="white"/>
<path d="M985.5 19L977.273 4.75L993.727 4.75L985.5 19Z" fill="white"/>
<path d="M601.5 19L593.273 4.75L609.727 4.75L601.5 19Z" fill="white"/>
<path d="M217.5 19L209.273 4.75L225.727 4.75L217.5 19Z" fill="white"/>
<path d="M1561.5 19L1553.27 4.75L1569.73 4.75L1561.5 19Z" fill="white"/>
<path d="M1177.5 19L1169.27 4.75L1185.73 4.75L1177.5 19Z" fill="white"/>
<path d="M793.5 19L785.273 4.75L801.727 4.75L793.5 19Z" fill="white"/>
<path d="M409.5 19L401.273 4.75L417.727 4.75L409.5 19Z" fill="white"/>
<path d="M25.5 19L17.2728 4.75L33.7272 4.75L25.5 19Z" fill="white"/>
<path d="M1897.5 19L1889.27 4.75L1905.73 4.75L1897.5 19Z" fill="white"/>
<path d="M1513.5 19L1505.27 4.75L1521.73 4.75L1513.5 19Z" fill="white"/>
<path d="M1129.5 19L1121.27 4.75L1137.73 4.75L1129.5 19Z" fill="white"/>
<path d="M745.5 19L737.273 4.75L753.727 4.75L745.5 19Z" fill="white"/>
<path d="M361.5 19L353.273 4.75L369.727 4.75L361.5 19Z" fill="white"/>
<path d="M1705.5 19L1697.27 4.75L1713.73 4.75L1705.5 19Z" fill="white"/>
<path d="M1321.5 19L1313.27 4.75L1329.73 4.75L1321.5 19Z" fill="white"/>
<path d="M937.5 19L929.273 4.75L945.727 4.75L937.5 19Z" fill="white"/>
<path d="M553.5 19L545.273 4.75L561.727 4.75L553.5 19Z" fill="white"/>
<path d="M169.5 19L161.273 4.75L177.727 4.75L169.5 19Z" fill="white"/>
<path d="M1833.5 19L1825.27 4.75L1841.73 4.75L1833.5 19Z" fill="white"/>
<path d="M1449.5 19L1441.27 4.75L1457.73 4.75L1449.5 19Z" fill="white"/>
<path d="M1065.5 19L1057.27 4.75L1073.73 4.75L1065.5 19Z" fill="white"/>
<path d="M681.5 19L673.273 4.75L689.727 4.75L681.5 19Z" fill="white"/>
<path d="M297.5 19L289.273 4.75L305.727 4.75L297.5 19Z" fill="white"/>
<path d="M1641.5 19L1633.27 4.75L1649.73 4.75L1641.5 19Z" fill="white"/>
<path d="M1257.5 19L1249.27 4.75L1265.73 4.75L1257.5 19Z" fill="white"/>
<path d="M873.5 19L865.273 4.75L881.727 4.75L873.5 19Z" fill="white"/>
<path d="M489.5 19L481.273 4.75L497.727 4.75L489.5 19Z" fill="white"/>
<path d="M105.5 19L97.2728 4.75L113.727 4.75L105.5 19Z" fill="white"/>
<path d="M1769.5 19L1761.27 4.75L1777.73 4.75L1769.5 19Z" fill="white"/>
<path d="M1385.5 19L1377.27 4.75L1393.73 4.75L1385.5 19Z" fill="white"/>
<path d="M1001.5 19L993.273 4.75L1009.73 4.75L1001.5 19Z" fill="white"/>
<path d="M617.5 19L609.273 4.75L625.727 4.75L617.5 19Z" fill="white"/>
<path d="M233.5 19L225.273 4.75L241.727 4.75L233.5 19Z" fill="white"/>
<path d="M1577.5 19L1569.27 4.75L1585.73 4.75L1577.5 19Z" fill="white"/>
<path d="M1193.5 19L1185.27 4.75L1201.73 4.75L1193.5 19Z" fill="white"/>
<path d="M809.5 19L801.273 4.75L817.727 4.75L809.5 19Z" fill="white"/>
<path d="M425.5 19L417.273 4.75L433.727 4.75L425.5 19Z" fill="white"/>
<path d="M41.5 19L33.2728 4.75L49.7272 4.75L41.5 19Z" fill="white"/>
<path d="M1865.5 19L1857.27 4.75L1873.73 4.75L1865.5 19Z" fill="white"/>
<path d="M1481.5 19L1473.27 4.75L1489.73 4.75L1481.5 19Z" fill="white"/>
<path d="M1097.5 19L1089.27 4.75L1105.73 4.75L1097.5 19Z" fill="white"/>
<path d="M713.5 19L705.273 4.75L721.727 4.75L713.5 19Z" fill="white"/>
<path d="M329.5 19L321.273 4.75L337.727 4.75L329.5 19Z" fill="white"/>
<path d="M1673.5 19L1665.27 4.75L1681.73 4.75L1673.5 19Z" fill="white"/>
<path d="M1289.5 19L1281.27 4.75L1297.73 4.75L1289.5 19Z" fill="white"/>
<path d="M905.5 19L897.273 4.75L913.727 4.75L905.5 19Z" fill="white"/>
<path d="M521.5 19L513.273 4.75L529.727 4.75L521.5 19Z" fill="white"/>
<path d="M137.5 19L129.273 4.75L145.727 4.75L137.5 19Z" fill="white"/>
<path d="M1801.5 19L1793.27 4.75L1809.73 4.75L1801.5 19Z" fill="white"/>
<path d="M1417.5 19L1409.27 4.75L1425.73 4.75L1417.5 19Z" fill="white"/>
<path d="M1033.5 19L1025.27 4.75L1041.73 4.75L1033.5 19Z" fill="white"/>
<path d="M649.5 19L641.273 4.75L657.727 4.75L649.5 19Z" fill="white"/>
<path d="M265.5 19L257.273 4.75L273.727 4.75L265.5 19Z" fill="white"/>
<path d="M1609.5 19L1601.27 4.75L1617.73 4.75L1609.5 19Z" fill="white"/>
<path d="M1225.5 19L1217.27 4.75L1233.73 4.75L1225.5 19Z" fill="white"/>
<path d="M841.5 19L833.273 4.75L849.727 4.75L841.5 19Z" fill="white"/>
<path d="M457.5 19L449.273 4.75L465.727 4.75L457.5 19Z" fill="white"/>
<path d="M73.5 19L65.2728 4.75L81.7272 4.75L73.5 19Z" fill="white"/>
<path d="M1737.5 19L1729.27 4.75L1745.73 4.75L1737.5 19Z" fill="white"/>
<path d="M1353.5 19L1345.27 4.75L1361.73 4.75L1353.5 19Z" fill="white"/>
<path d="M969.5 19L961.273 4.75L977.727 4.75L969.5 19Z" fill="white"/>
<path d="M585.5 19L577.273 4.75L593.727 4.75L585.5 19Z" fill="white"/>
<path d="M201.5 19L193.273 4.75L209.727 4.75L201.5 19Z" fill="white"/>
<path d="M1545.5 19L1537.27 4.75L1553.73 4.75L1545.5 19Z" fill="white"/>
<path d="M1161.5 19L1153.27 4.75L1169.73 4.75L1161.5 19Z" fill="white"/>
<path d="M777.5 19L769.273 4.75L785.727 4.75L777.5 19Z" fill="white"/>
<path d="M393.5 19L385.273 4.75L401.727 4.75L393.5 19Z" fill="white"/>
<path d="M9.5 19L1.27276 4.75L17.7272 4.75L9.5 19Z" fill="white"/>
</svg>
