<svg width="1920" height="19" viewBox="0 0 1920 19" fill="none" xmlns="http://www.w3.org/2000/svg">
<path d="M9.5 0L17.7272 14.25H1.27276L9.5 0Z" fill="white"/>
<path d="M393.5 0L401.727 14.25H385.273L393.5 0Z" fill="white"/>
<path d="M777.5 0L785.727 14.25H769.273L777.5 0Z" fill="white"/>
<path d="M1161.5 0L1169.73 14.25H1153.27L1161.5 0Z" fill="white"/>
<path d="M1545.5 0L1553.73 14.25H1537.27L1545.5 0Z" fill="white"/>
<path d="M201.5 0L209.727 14.25H193.273L201.5 0Z" fill="white"/>
<path d="M585.5 0L593.727 14.25H577.273L585.5 0Z" fill="white"/>
<path d="M969.5 0L977.727 14.25H961.273L969.5 0Z" fill="white"/>
<path d="M1353.5 0L1361.73 14.25H1345.27L1353.5 0Z" fill="white"/>
<path d="M1737.5 0L1745.73 14.25H1729.27L1737.5 0Z" fill="white"/>
<path d="M73.5 0L81.7272 14.25H65.2728L73.5 0Z" fill="white"/>
<path d="M457.5 0L465.727 14.25H449.273L457.5 0Z" fill="white"/>
<path d="M841.5 0L849.727 14.25H833.273L841.5 0Z" fill="white"/>
<path d="M1225.5 0L1233.73 14.25H1217.27L1225.5 0Z" fill="white"/>
<path d="M1609.5 0L1617.73 14.25H1601.27L1609.5 0Z" fill="white"/>
<path d="M265.5 0L273.727 14.25H257.273L265.5 0Z" fill="white"/>
<path d="M649.5 0L657.727 14.25H641.273L649.5 0Z" fill="white"/>
<path d="M1033.5 0L1041.73 14.25H1025.27L1033.5 0Z" fill="white"/>
<path d="M1417.5 0L1425.73 14.25H1409.27L1417.5 0Z" fill="white"/>
<path d="M1801.5 0L1809.73 14.25H1793.27L1801.5 0Z" fill="white"/>
<path d="M137.5 0L145.727 14.25H129.273L137.5 0Z" fill="white"/>
<path d="M521.5 0L529.727 14.25H513.273L521.5 0Z" fill="white"/>
<path d="M905.5 0L913.727 14.25H897.273L905.5 0Z" fill="white"/>
<path d="M1289.5 0L1297.73 14.25H1281.27L1289.5 0Z" fill="white"/>
<path d="M1673.5 0L1681.73 14.25H1665.27L1673.5 0Z" fill="white"/>
<path d="M329.5 0L337.727 14.25H321.273L329.5 0Z" fill="white"/>
<path d="M713.5 0L721.727 14.25H705.273L713.5 0Z" fill="white"/>
<path d="M1097.5 0L1105.73 14.25H1089.27L1097.5 0Z" fill="white"/>
<path d="M1481.5 0L1489.73 14.25H1473.27L1481.5 0Z" fill="white"/>
<path d="M1865.5 0L1873.73 14.25H1857.27L1865.5 0Z" fill="white"/>
<path d="M41.5 0L49.7272 14.25H33.2728L41.5 0Z" fill="white"/>
<path d="M425.5 0L433.727 14.25H417.273L425.5 0Z" fill="white"/>
<path d="M809.5 0L817.727 14.25H801.273L809.5 0Z" fill="white"/>
<path d="M1193.5 0L1201.73 14.25H1185.27L1193.5 0Z" fill="white"/>
<path d="M1577.5 0L1585.73 14.25H1569.27L1577.5 0Z" fill="white"/>
<path d="M233.5 0L241.727 14.25H225.273L233.5 0Z" fill="white"/>
<path d="M617.5 0L625.727 14.25H609.273L617.5 0Z" fill="white"/>
<path d="M1001.5 0L1009.73 14.25H993.273L1001.5 0Z" fill="white"/>
<path d="M1385.5 0L1393.73 14.25H1377.27L1385.5 0Z" fill="white"/>
<path d="M1769.5 0L1777.73 14.25H1761.27L1769.5 0Z" fill="white"/>
<path d="M105.5 0L113.727 14.25H97.2728L105.5 0Z" fill="white"/>
<path d="M489.5 0L497.727 14.25H481.273L489.5 0Z" fill="white"/>
<path d="M873.5 0L881.727 14.25H865.273L873.5 0Z" fill="white"/>
<path d="M1257.5 0L1265.73 14.25H1249.27L1257.5 0Z" fill="white"/>
<path d="M1641.5 0L1649.73 14.25H1633.27L1641.5 0Z" fill="white"/>
<path d="M297.5 0L305.727 14.25H289.273L297.5 0Z" fill="white"/>
<path d="M681.5 0L689.727 14.25H673.273L681.5 0Z" fill="white"/>
<path d="M1065.5 0L1073.73 14.25H1057.27L1065.5 0Z" fill="white"/>
<path d="M1449.5 0L1457.73 14.25H1441.27L1449.5 0Z" fill="white"/>
<path d="M1833.5 0L1841.73 14.25H1825.27L1833.5 0Z" fill="white"/>
<path d="M169.5 0L177.727 14.25H161.273L169.5 0Z" fill="white"/>
<path d="M553.5 0L561.727 14.25H545.273L553.5 0Z" fill="white"/>
<path d="M937.5 0L945.727 14.25H929.273L937.5 0Z" fill="white"/>
<path d="M1321.5 0L1329.73 14.25H1313.27L1321.5 0Z" fill="white"/>
<path d="M1705.5 0L1713.73 14.25H1697.27L1705.5 0Z" fill="white"/>
<path d="M361.5 0L369.727 14.25H353.273L361.5 0Z" fill="white"/>
<path d="M745.5 0L753.727 14.25H737.273L745.5 0Z" fill="white"/>
<path d="M1129.5 0L1137.73 14.25H1121.27L1129.5 0Z" fill="white"/>
<path d="M1513.5 0L1521.73 14.25H1505.27L1513.5 0Z" fill="white"/>
<path d="M1897.5 0L1905.73 14.25H1889.27L1897.5 0Z" fill="white"/>
<path d="M25.5 0L33.7272 14.25H17.2728L25.5 0Z" fill="white"/>
<path d="M409.5 0L417.727 14.25H401.273L409.5 0Z" fill="white"/>
<path d="M793.5 0L801.727 14.25H785.273L793.5 0Z" fill="white"/>
<path d="M1177.5 0L1185.73 14.25H1169.27L1177.5 0Z" fill="white"/>
<path d="M1561.5 0L1569.73 14.25H1553.27L1561.5 0Z" fill="white"/>
<path d="M217.5 0L225.727 14.25H209.273L217.5 0Z" fill="white"/>
<path d="M601.5 0L609.727 14.25H593.273L601.5 0Z" fill="white"/>
<path d="M985.5 0L993.727 14.25H977.273L985.5 0Z" fill="white"/>
<path d="M1369.5 0L1377.73 14.25H1361.27L1369.5 0Z" fill="white"/>
<path d="M1753.5 0L1761.73 14.25H1745.27L1753.5 0Z" fill="white"/>
<path d="M89.5 0L97.7272 14.25H81.2728L89.5 0Z" fill="white"/>
<path d="M473.5 0L481.727 14.25H465.273L473.5 0Z" fill="white"/>
<path d="M857.5 0L865.727 14.25H849.273L857.5 0Z" fill="white"/>
<path d="M1241.5 0L1249.73 14.25H1233.27L1241.5 0Z" fill="white"/>
<path d="M1625.5 0L1633.73 14.25H1617.27L1625.5 0Z" fill="white"/>
<path d="M281.5 0L289.727 14.25H273.273L281.5 0Z" fill="white"/>
<path d="M665.5 0L673.727 14.25H657.273L665.5 0Z" fill="white"/>
<path d="M1049.5 0L1057.73 14.25H1041.27L1049.5 0Z" fill="white"/>
<path d="M1433.5 0L1441.73 14.25H1425.27L1433.5 0Z" fill="white"/>
<path d="M1817.5 0L1825.73 14.25H1809.27L1817.5 0Z" fill="white"/>
<path d="M153.5 0L161.727 14.25H145.273L153.5 0Z" fill="white"/>
<path d="M537.5 0L545.727 14.25H529.273L537.5 0Z" fill="white"/>
<path d="M921.5 0L929.727 14.25H913.273L921.5 0Z" fill="white"/>
<path d="M1305.5 0L1313.73 14.25H1297.27L1305.5 0Z" fill="white"/>
<path d="M1689.5 0L1697.73 14.25H1681.27L1689.5 0Z" fill="white"/>
<path d="M345.5 0L353.727 14.25H337.273L345.5 0Z" fill="white"/>
<path d="M729.5 0L737.727 14.25H721.273L729.5 0Z" fill="white"/>
<path d="M1113.5 0L1121.73 14.25H1105.27L1113.5 0Z" fill="white"/>
<path d="M1497.5 0L1505.73 14.25H1489.27L1497.5 0Z" fill="white"/>
<path d="M1881.5 0L1889.73 14.25H1873.27L1881.5 0Z" fill="white"/>
<path d="M57.5 0L65.7272 14.25H49.2728L57.5 0Z" fill="white"/>
<path d="M441.5 0L449.727 14.25H433.273L441.5 0Z" fill="white"/>
<path d="M825.5 0L833.727 14.25H817.273L825.5 0Z" fill="white"/>
<path d="M1209.5 0L1217.73 14.25H1201.27L1209.5 0Z" fill="white"/>
<path d="M1593.5 0L1601.73 14.25H1585.27L1593.5 0Z" fill="white"/>
<path d="M249.5 0L257.727 14.25H241.273L249.5 0Z" fill="white"/>
<path d="M633.5 0L641.727 14.25H625.273L633.5 0Z" fill="white"/>
<path d="M1017.5 0L1025.73 14.25H1009.27L1017.5 0Z" fill="white"/>
<path d="M1401.5 0L1409.73 14.25H1393.27L1401.5 0Z" fill="white"/>
<path d="M1785.5 0L1793.73 14.25H1777.27L1785.5 0Z" fill="white"/>
<path d="M121.5 0L129.727 14.25H113.273L121.5 0Z" fill="white"/>
<path d="M505.5 0L513.727 14.25H497.273L505.5 0Z" fill="white"/>
<path d="M889.5 0L897.727 14.25H881.273L889.5 0Z" fill="white"/>
<path d="M1273.5 0L1281.73 14.25H1265.27L1273.5 0Z" fill="white"/>
<path d="M1657.5 0L1665.73 14.25H1649.27L1657.5 0Z" fill="white"/>
<path d="M313.5 0L321.727 14.25H305.273L313.5 0Z" fill="white"/>
<path d="M697.5 0L705.727 14.25H689.273L697.5 0Z" fill="white"/>
<path d="M1081.5 0L1089.73 14.25H1073.27L1081.5 0Z" fill="white"/>
<path d="M1465.5 0L1473.73 14.25H1457.27L1465.5 0Z" fill="white"/>
<path d="M1849.5 0L1857.73 14.25H1841.27L1849.5 0Z" fill="white"/>
<path d="M185.5 0L193.727 14.25H177.273L185.5 0Z" fill="white"/>
<path d="M569.5 0L577.727 14.25H561.273L569.5 0Z" fill="white"/>
<path d="M953.5 0L961.727 14.25H945.273L953.5 0Z" fill="white"/>
<path d="M1337.5 0L1345.73 14.25H1329.27L1337.5 0Z" fill="white"/>
<path d="M1721.5 0L1729.73 14.25H1713.27L1721.5 0Z" fill="white"/>
<path d="M377.5 0L385.727 14.25H369.273L377.5 0Z" fill="white"/>
<path d="M761.5 0L769.727 14.25H753.273L761.5 0Z" fill="white"/>
<path d="M1145.5 0L1153.73 14.25H1137.27L1145.5 0Z" fill="white"/>
<path d="M1529.5 0L1537.73 14.25H1521.27L1529.5 0Z" fill="white"/>
<path d="M1913.5 0L1921.73 14.25H1905.27L1913.5 0Z" fill="white"/>
</svg>
