<svg width="14" height="14" viewBox="0 0 14 14" fill="none" xmlns="http://www.w3.org/2000/svg">
<g clip-path="url(#clip0_26_163)">
<path d="M13.9863 4.11604C13.9535 3.37216 13.8332 2.86076 13.6609 2.41762C13.4831 1.94723 13.2096 1.5261 12.8513 1.17601C12.5012 0.820473 12.0773 0.544204 11.6124 0.369213C11.1667 0.196892 10.6579 0.0765988 9.91406 0.0438013C9.16463 0.00822609 8.92671 0 7.02595 0C5.12519 0 4.88728 0.00822609 4.14063 0.0410236C3.39675 0.0738212 2.88535 0.194221 2.44231 0.366435C1.97182 0.544204 1.55069 0.817695 1.2006 1.17601C0.845062 1.5261 0.5689 1.95001 0.393802 2.41495C0.221482 2.86076 0.101188 3.36939 0.0683908 4.11326C0.0328156 4.86269 0.0245895 5.10061 0.0245895 7.00137C0.0245895 8.90213 0.0328156 9.14005 0.0656132 9.8867C0.0984107 10.6306 0.218811 11.142 0.391131 11.5851C0.5689 12.0555 0.845062 12.4766 1.2006 12.8267C1.55069 13.1823 1.9746 13.4585 2.43953 13.6335C2.88535 13.8058 3.39397 13.9261 4.13795 13.9589C4.8845 13.9918 5.12252 14 7.02328 14C8.92404 14 9.16196 13.9918 9.90861 13.9589C10.6525 13.9261 11.1639 13.8058 11.6069 13.6335C12.5478 13.2698 13.2917 12.5259 13.6554 11.5851C13.8276 11.1393 13.948 10.6306 13.9808 9.8867C14.0136 9.14005 14.0219 8.90213 14.0219 7.00137C14.0219 5.10061 14.0191 4.86269 13.9863 4.11604ZM12.7256 9.832C12.6954 10.5157 12.5806 10.8849 12.4849 11.1311C12.2496 11.741 11.7656 12.225 11.1557 12.4603C10.9095 12.556 10.5376 12.6709 9.85658 12.7009C9.11816 12.7338 8.89669 12.7419 7.02873 12.7419C5.16077 12.7419 4.93653 12.7338 4.20077 12.7009C3.51705 12.6709 3.14783 12.556 2.90169 12.4603C2.59818 12.3481 2.32191 12.1703 2.09767 11.9379C1.8652 11.7109 1.68743 11.4374 1.57526 11.1339C1.47954 10.8877 1.36469 10.5157 1.33467 9.83478C1.30177 9.09635 1.29365 8.87478 1.29365 7.00682C1.29365 5.13885 1.30177 4.91461 1.33467 4.17896C1.36469 3.49524 1.47954 3.12602 1.57526 2.87988C1.68743 2.57626 1.8652 2.3001 2.10045 2.07575C2.32736 1.84329 2.60085 1.66552 2.90447 1.55345C3.15061 1.45773 3.5226 1.34288 4.20355 1.31276C4.94198 1.27996 5.16355 1.27173 7.0314 1.27173C8.90214 1.27173 9.12361 1.27996 9.85936 1.31276C10.5431 1.34288 10.9123 1.45773 11.1584 1.55345C11.462 1.66552 11.7382 1.84329 11.9625 2.07575C12.1949 2.30277 12.3727 2.57626 12.4849 2.87988C12.5806 3.12602 12.6954 3.49791 12.7256 4.17896C12.7584 4.91739 12.7666 5.13885 12.7666 7.00682C12.7666 8.87478 12.7584 9.09357 12.7256 9.832Z" fill="#222222"/>
<path d="M7.02596 3.40527C5.04048 3.40527 3.42955 5.01609 3.42955 7.00168C3.42955 8.98727 5.04048 10.5981 7.02596 10.5981C9.01154 10.5981 10.6224 8.98727 10.6224 7.00168C10.6224 5.01609 9.01154 3.40527 7.02596 3.40527ZM7.02596 9.33458C5.73788 9.33458 4.69306 8.28986 4.69306 7.00168C4.69306 5.71349 5.73788 4.66878 7.02596 4.66878C8.31414 4.66878 9.35886 5.71349 9.35886 7.00168C9.35886 8.28986 8.31414 9.33458 7.02596 9.33458Z" fill="#222222"/>
<path d="M11.6043 3.26294C11.6043 3.72659 11.2283 4.10253 10.7646 4.10253C10.3009 4.10253 9.92496 3.72659 9.92496 3.26294C9.92496 2.79918 10.3009 2.42334 10.7646 2.42334C11.2283 2.42334 11.6043 2.79918 11.6043 3.26294Z" fill="#222222"/>
</g>
<defs>
<clipPath id="clip0_26_163">
<rect width="14" height="14" fill="white"/>
</clipPath>
</defs>
</svg>
