<svg width="22" height="21" viewBox="0 0 22 21" fill="none" xmlns="http://www.w3.org/2000/svg">
<g clip-path="url(#clip0_604_316)">
<path d="M21.9997 12.8531C21.9291 13.0526 21.8735 13.259 21.7851 13.4506C21.5969 13.8588 21.2824 14.1547 20.8773 14.3793C21.1005 14.8896 21.1556 15.4079 20.9748 15.9387C20.7964 16.4621 20.4515 16.8458 19.9849 17.1035C20.0441 17.3549 20.129 17.5864 20.1485 17.8236C20.2495 19.071 19.3279 20.0682 18.0626 20.079C16.8242 20.0899 15.5853 20.0819 14.3469 20.0819C12.8435 20.0819 11.34 20.0785 9.83653 20.083C8.96372 20.0859 8.13394 19.904 7.33917 19.55C7.30072 19.5328 7.26055 19.5186 7.20948 19.4986C7.17218 19.5728 7.1389 19.6412 7.10332 19.7079C6.68154 20.5049 6.02507 20.9593 5.1161 20.9821C4.15721 21.0061 3.19717 21.0038 2.23828 20.9833C0.979837 20.9565 0.0106161 19.9679 0.00602535 18.7113C-0.00200845 16.2802 -0.00200845 13.8497 0.00602535 11.4186C0.0100423 10.1369 1.01025 9.14146 2.29623 9.13348C3.7997 9.12436 5.30317 9.13006 6.80664 9.13177C7.16587 9.13234 7.28006 9.2572 7.36843 9.76804C7.42869 9.68309 7.47918 9.63121 7.50788 9.56907C8.34798 7.76001 9.18694 5.95095 10.0219 4.13961C10.0649 4.04668 10.0856 3.9355 10.0862 3.83231C10.0907 2.90583 10.0965 1.97878 10.0844 1.0523C10.081 0.7678 10.1757 0.555707 10.4322 0.449091C10.8052 0.294013 11.181 0.126961 11.5718 0.0363089C12.1181 -0.0902624 12.6053 0.117839 13.0265 0.457643C14.2482 1.44228 14.802 2.71141 14.635 4.27759C14.5352 5.21604 14.3085 6.12712 14.0267 7.02567C14.0015 7.10606 13.9797 7.18702 13.9458 7.30219C14.0543 7.30219 14.1369 7.30219 14.2195 7.30219C15.9807 7.30219 17.7424 7.29933 19.5035 7.30333C20.4635 7.30561 21.2285 7.68361 21.7145 8.52628C21.8505 8.76175 21.9067 9.04226 21.9997 9.30224C21.9997 9.50179 21.9997 9.70134 21.9997 9.90089C21.8815 10.3405 21.7357 10.7669 21.3983 11.1164C21.7323 11.4346 21.8849 11.8342 21.9997 12.2539C21.9997 12.454 21.9997 12.6535 21.9997 12.8531ZM13.7697 19.1731C14.2781 19.1731 14.7865 19.1731 15.2944 19.1731C16.1964 19.1731 17.0985 19.1782 18.0006 19.1708C18.5113 19.1668 18.9319 18.9684 19.1483 18.4889C19.3595 18.0191 19.2556 17.5847 18.8975 17.2118C18.7644 17.0733 18.7047 16.9148 18.7724 16.7238C18.843 16.5248 18.9974 16.441 19.1936 16.4079C19.6418 16.3315 19.9551 16.0806 20.1009 15.6547C20.2432 15.238 20.1605 14.8486 19.8564 14.5242C19.7078 14.3657 19.6171 14.1986 19.6883 13.9859C19.76 13.7704 19.9408 13.7003 20.1525 13.6632C20.6322 13.5783 20.9863 13.2077 21.0643 12.7322C21.1395 12.2721 20.9387 11.8462 20.5238 11.5868C20.1043 11.324 20.0951 10.9944 20.4997 10.7008C20.5054 10.6968 20.5112 10.6917 20.5169 10.6877C21.3013 10.1084 21.2646 8.99208 20.4434 8.46584C20.1571 8.28226 19.8409 8.22182 19.5029 8.22239C17.4841 8.22581 15.4654 8.2241 13.446 8.2241C12.9141 8.2241 12.735 7.96811 12.9118 7.46639C13.2555 6.49087 13.5263 5.49769 13.6928 4.47486C13.8965 3.22169 13.5447 2.17377 12.6208 1.29974C12.1824 0.885249 11.7159 0.836787 11.1845 1.07625C11.0496 1.13668 10.9951 1.20624 10.9963 1.36075C11.0049 2.23021 11.0055 3.10025 10.9957 3.96971C10.994 4.12764 10.9572 4.29697 10.8913 4.44008C10.0793 6.20694 9.24662 7.96412 8.45013 9.73783C8.24871 10.186 8.00597 10.5394 7.5228 10.69C7.38335 10.7333 7.334 10.82 7.334 10.9745C7.33974 13.4192 7.33974 15.8646 7.33458 18.3093C7.334 18.4673 7.38565 18.5562 7.52337 18.6263C8.21715 18.9798 8.95396 19.1662 9.73095 19.1714C11.0778 19.1794 12.424 19.1731 13.7697 19.1731ZM6.41528 10.0406C6.30855 10.0406 6.23108 10.0406 6.15361 10.0406C4.92271 10.0406 3.69125 10.04 2.46035 10.0406C1.47621 10.0411 0.916141 10.5976 0.916141 11.5771C0.915567 13.259 0.916141 14.9409 0.916141 16.6223C0.916141 17.3064 0.909828 17.9906 0.917862 18.6748C0.927617 19.4661 1.50376 20.0699 2.26582 20.0785C3.20348 20.0887 4.14114 20.0876 5.0788 20.0785C5.68937 20.0728 6.21788 19.66 6.36134 19.0682C6.41585 18.8435 6.41356 18.6024 6.41356 18.3692C6.417 15.8606 6.41585 13.3525 6.41585 10.8439C6.41528 10.5879 6.41528 10.3325 6.41528 10.0406Z" fill="#303549"/>
</g>
<defs>
<clipPath id="clip0_604_316">
<rect width="22" height="21" fill="white"/>
</clipPath>
</defs>
</svg>
