<svg width="22" height="21" viewBox="0 0 22 21" fill="none" xmlns="http://www.w3.org/2000/svg">
<g clip-path="url(#clip0_604_168)">
<path d="M1 19V11.5L2 10H5H6.5V18.5L5.5 20H2L1 19Z" fill="#F37342" stroke="#F37342"/>
<path d="M11 3.5V1H11.5L13 1.5L13.5 2.5V3.5V5.5L12.5 7L13 8H16H18H19.5L20.5 8.5L21 9V10L20.5 10.5V11.5L21 12V12.5L20.5 13L20 13.5V14.5V15V16H19.5L19 16.5V17.5V18.5L18 19H16.5H13.5H10.5H8.5L7.5 18.5V14L7 11.5L7.5 11L8.5 10L9.5 7.5L10.5 5.5L11 3.5Z" fill="#F37342" stroke="#F37342"/>
<path d="M22.0002 12.8531C21.9296 13.0526 21.874 13.259 21.7856 13.4506C21.5974 13.8588 21.2829 14.1547 20.8778 14.3793C21.101 14.8896 21.1561 15.4079 20.9753 15.9387C20.7969 16.4621 20.452 16.8458 19.9854 17.1035C20.0445 17.3549 20.1295 17.5864 20.149 17.8236C20.25 19.071 19.3284 20.0682 18.0631 20.079C16.8247 20.0899 15.5858 20.0819 14.3474 20.0819C12.844 20.0819 11.3405 20.0785 9.83702 20.083C8.9642 20.0859 8.13443 19.904 7.33966 19.55C7.30121 19.5328 7.26104 19.5186 7.20997 19.4986C7.17267 19.5728 7.13938 19.6412 7.10381 19.7079C6.68203 20.5049 6.02555 20.9593 5.11659 20.9821C4.1577 21.0061 3.19766 21.0038 2.23876 20.9833C0.980325 20.9565 0.0111044 19.9679 0.00651363 18.7113C-0.00152017 16.2802 -0.00152017 13.8497 0.00651363 11.4186C0.0105305 10.1369 1.01074 9.14146 2.29672 9.13348C3.80019 9.12436 5.30366 9.13006 6.80713 9.13177C7.16636 9.13234 7.28055 9.2572 7.36892 9.76804C7.42917 9.68309 7.47967 9.63121 7.50836 9.56907C8.34847 7.76001 9.18743 5.95095 10.0224 4.13961C10.0654 4.04668 10.0861 3.9355 10.0866 3.83231C10.0912 2.90583 10.097 1.97878 10.0849 1.0523C10.0815 0.7678 10.1762 0.555707 10.4327 0.449091C10.8057 0.294013 11.1815 0.126961 11.5723 0.0363089C12.1186 -0.0902624 12.6058 0.117839 13.027 0.457643C14.2487 1.44228 14.8025 2.71141 14.6355 4.27759C14.5356 5.21604 14.309 6.12712 14.0272 7.02567C14.002 7.10606 13.9802 7.18702 13.9463 7.30219C14.0548 7.30219 14.1374 7.30219 14.22 7.30219C15.9812 7.30219 17.7429 7.29933 19.504 7.30333C20.464 7.30561 21.229 7.68361 21.715 8.52628C21.851 8.76175 21.9072 9.04226 22.0002 9.30224C22.0002 9.50179 22.0002 9.70134 22.0002 9.90089C21.882 10.3405 21.7362 10.7669 21.3988 11.1164C21.7328 11.4346 21.8854 11.8342 22.0002 12.2539C22.0002 12.454 22.0002 12.6535 22.0002 12.8531ZM13.7701 19.1731C14.2786 19.1731 14.787 19.1731 15.2948 19.1731C16.1969 19.1731 17.099 19.1782 18.0011 19.1708C18.5118 19.1668 18.9324 18.9684 19.1488 18.4889C19.3599 18.0191 19.2561 17.5847 18.898 17.2118C18.7649 17.0733 18.7052 16.9148 18.7729 16.7238C18.8435 16.5248 18.9979 16.441 19.1941 16.4079C19.6423 16.3315 19.9556 16.0806 20.1014 15.6547C20.2437 15.238 20.161 14.8486 19.8569 14.5242C19.7083 14.3657 19.6176 14.1986 19.6888 13.9859C19.7605 13.7704 19.9413 13.7003 20.153 13.6632C20.6327 13.5783 20.9868 13.2077 21.0648 12.7322C21.14 12.2721 20.9392 11.8462 20.5243 11.5868C20.1048 11.324 20.0956 10.9944 20.5002 10.7008C20.5059 10.6968 20.5117 10.6917 20.5174 10.6877C21.3018 10.1084 21.2651 8.99208 20.4439 8.46584C20.1576 8.28226 19.8414 8.22182 19.5034 8.22239C17.4846 8.22581 15.4658 8.2241 13.4465 8.2241C12.9145 8.2241 12.7355 7.96811 12.9122 7.46639C13.256 6.49087 13.5268 5.49769 13.6932 4.47486C13.897 3.22169 13.5452 2.17377 12.6213 1.29974C12.1829 0.885249 11.7164 0.836787 11.185 1.07625C11.0501 1.13668 10.9956 1.20624 10.9968 1.36075C11.0054 2.23021 11.0059 3.10025 10.9962 3.96971C10.9945 4.12764 10.9577 4.29697 10.8917 4.44008C10.0798 6.20694 9.24711 7.96412 8.45062 9.73783C8.2492 10.186 8.00646 10.5394 7.52329 10.69C7.38384 10.7333 7.33449 10.82 7.33449 10.9745C7.34023 13.4192 7.34023 15.8646 7.33506 18.3093C7.33449 18.4673 7.38614 18.5562 7.52386 18.6263C8.21764 18.9798 8.95445 19.1662 9.73143 19.1714C11.0782 19.1794 12.4245 19.1731 13.7701 19.1731ZM6.41577 10.0406C6.30903 10.0406 6.23156 10.0406 6.1541 10.0406C4.9232 10.0406 3.69173 10.04 2.46084 10.0406C1.4767 10.0411 0.916629 10.5976 0.916629 11.5771C0.916055 13.259 0.916629 14.9409 0.916629 16.6223C0.916629 17.3064 0.910317 17.9906 0.91835 18.6748C0.928106 19.4661 1.50424 20.0699 2.26631 20.0785C3.20397 20.0887 4.14163 20.0876 5.07929 20.0785C5.68986 20.0728 6.21837 19.66 6.36183 19.0682C6.41634 18.8435 6.41405 18.6024 6.41405 18.3692C6.41749 15.8606 6.41634 13.3525 6.41634 10.8439C6.41577 10.5879 6.41577 10.3325 6.41577 10.0406Z" fill="white"/>
</g>
<defs>
<clipPath id="clip0_604_168">
<rect width="22" height="21" fill="white"/>
</clipPath>
</defs>
</svg>
