<svg width="36" height="37" viewBox="0 0 36 37" fill="none" xmlns="http://www.w3.org/2000/svg">
<g clip-path="url(#clip0_994_788)">
<path d="M19.1506 9.66118L18.0457 10.766C16.015 12.7968 16.015 16.101 18.0457 18.1317C20.0765 20.1625 23.3807 20.1625 25.4114 18.1317L26.5163 17.0269C28.547 14.9962 28.547 11.6919 26.5163 9.66118C24.4856 7.63046 21.1813 7.63046 19.1506 9.66118ZM25.0431 15.5537L23.9383 16.6586C22.7196 17.8773 20.7375 17.8772 19.5189 16.6586C18.3002 15.4399 18.3002 13.4578 19.5189 12.2392L20.6237 11.1343C21.8424 9.91567 23.8245 9.91567 25.0431 11.1343C26.2618 12.353 26.2618 14.3351 25.0431 15.5537ZM9.94346 18.8683L8.83861 19.9732C6.80789 22.0039 6.80789 25.3081 8.83861 27.3389C10.8693 29.3696 14.1736 29.3696 16.2043 27.3389L17.3092 26.234C19.3399 24.2033 19.3399 20.899 17.3092 18.8683C15.2784 16.8376 11.9742 16.8376 9.94346 18.8683ZM15.836 24.7609L14.7312 25.8657C13.5125 27.0844 11.5304 27.0844 10.3117 25.8657C9.09309 24.6471 9.09309 22.665 10.3117 21.4463L11.4166 20.3414C12.6353 19.1228 14.6174 19.1228 15.836 20.3414C17.0547 21.5601 17.0547 23.5422 15.836 24.7609Z" fill="#1976D2"/>
<path d="M20.2558 14.4489L13.6267 21.078C13.2201 21.4846 13.2201 22.1446 13.6267 22.5511C14.0333 22.9577 14.6933 22.9577 15.0998 22.5511L21.729 15.922C22.1356 15.5154 22.1356 14.8555 21.729 14.4489C21.3224 14.0423 20.6624 14.0423 20.2558 14.4489Z" fill="#42A5F5"/>
</g>
<defs>
<clipPath id="clip0_994_788">
<rect width="25" height="25" fill="white" transform="translate(0 18.5) rotate(-45)"/>
</clipPath>
</defs>
</svg>
