<svg width="22" height="22" viewBox="0 0 22 22" fill="none" xmlns="http://www.w3.org/2000/svg">
<g clip-path="url(#clip0_1350_8)">
<path d="M11.4906 5.6967L10.8277 6.35962C9.6093 7.57805 9.6093 9.5606 10.8277 10.779C12.0462 11.9975 14.0287 11.9975 15.2471 10.779L15.9101 10.1161C17.1285 8.89769 17.1285 6.91514 15.9101 5.6967C14.6916 4.47827 12.7091 4.47827 11.4906 5.6967ZM15.0262 9.23224L14.3633 9.89515C13.6321 10.6263 12.4428 10.6263 11.7116 9.89515C10.9804 9.16396 10.9804 7.97469 11.7116 7.2435L12.3745 6.58059C13.1057 5.8494 14.295 5.8494 15.0262 6.58059C15.7574 7.31178 15.7574 8.50105 15.0262 9.23224ZM5.96637 11.221L5.30346 11.8839C4.08503 13.1023 4.08503 15.0849 5.30346 16.3033C6.52189 17.5217 8.50444 17.5217 9.72288 16.3033L10.3858 15.6404C11.6042 14.422 11.6042 12.4394 10.3858 11.221C9.16736 10.0025 7.1848 10.0025 5.96637 11.221ZM9.5019 14.7565L8.83899 15.4194C8.1078 16.1506 6.91853 16.1506 6.18734 15.4194C5.45615 14.6882 5.45615 13.499 6.18734 12.7678L6.85025 12.1049C7.58145 11.3737 8.77071 11.3737 9.5019 12.1049C10.2331 12.8361 10.2331 14.0253 9.5019 14.7565Z" fill="white"/>
<path d="M12.1533 8.56932L8.17583 12.5468C7.93188 12.7907 7.93188 13.1867 8.17583 13.4307C8.41978 13.6746 8.81576 13.6746 9.05971 13.4307L13.0372 9.4532C13.2811 9.20925 13.2811 8.81327 13.0372 8.56932C12.7932 8.32537 12.3973 8.32537 12.1533 8.56932Z" fill="white" fill-opacity="0.48"/>
</g>
<defs>
<clipPath id="clip0_1350_8">
<rect width="15" height="15" fill="white" transform="translate(0 11) rotate(-45)"/>
</clipPath>
</defs>
</svg>
