<svg width="12" height="14" viewBox="0 0 12 14" fill="none" xmlns="http://www.w3.org/2000/svg">
<g clip-path="url(#clip0_26_159)">
<path d="M11.997 13.9998V13.9992H12V8.86472C12 6.35289 11.5365 4.41797 9.0195 4.41797C7.8095 4.41797 6.9975 5.19264 6.666 5.92705H6.631V4.65247H4.2445V13.9992H6.7295V9.37105C6.7295 8.15247 6.9275 6.97414 8.221 6.97414C9.4955 6.97414 9.5145 8.3648 9.5145 9.44922V13.9998H11.997Z" fill="#222222"/>
<path d="M0.197998 4.65332H2.686V14.0001H0.197998V4.65332Z" fill="#222222"/>
<path d="M1.441 0C0.6455 0 0 0.753083 0 1.68117C0 2.60925 0.6455 3.37808 1.441 3.37808C2.2365 3.37808 2.882 2.60925 2.882 1.68117C2.8815 0.753083 2.236 0 1.441 0V0Z" fill="#222222"/>
</g>
<defs>
<clipPath id="clip0_26_159">
<rect width="12" height="14" fill="white"/>
</clipPath>
</defs>
</svg>
