<svg width="78" height="106" viewBox="0 0 78 106" fill="none" xmlns="http://www.w3.org/2000/svg">
<g clip-path="url(#clip0_22_51)">
<path d="M78 56.5662C78 70.8849 78 85.2332 78 99.5518C78 102.445 76.4648 104.394 73.8668 104.896C72.4497 105.161 71.1802 104.718 69.9993 103.98C65.9841 101.589 61.9394 99.2271 57.9538 96.8062C57.0386 96.2453 56.3301 96.2748 55.4148 96.8357C51.0159 99.4928 46.5579 102.091 42.159 104.777C39.9152 106.165 37.8486 106.076 35.6639 104.718C31.3535 102.061 26.9546 99.4928 22.6147 96.8357C21.67 96.2748 20.9319 96.2453 19.9871 96.8062C16.031 99.2271 12.0454 101.589 8.0598 103.951C4.04466 106.313 0.0590473 104.069 0.0590473 99.4042C1.11293e-06 71.1211 1.11293e-06 42.8085 0.0295242 14.4663C0.0295242 6.08176 6.19985 0 14.5844 0C30.9107 0 47.2369 0 63.5337 0C71.7706 0 77.941 6.1408 77.9705 14.3482C78 28.4307 78 42.5132 78 56.5662ZM35.0734 26.187C28.2831 28.2831 26.0098 34.4534 26.3936 38.9114C26.8955 44.757 30.9697 49.2445 36.8153 50.3073C37.76 50.4845 38.7343 50.455 39.679 50.6321C42.159 51.1045 43.9599 53.4073 43.8713 55.9758C43.8123 58.6033 41.9523 60.6995 39.3838 61.0833C36.9924 61.4375 35.0734 60.3157 33.8039 57.8652C32.8002 55.9463 30.7926 55.2377 28.9622 56.1529C27.1908 57.0386 26.4232 59.1052 27.4565 60.9356C28.2831 62.4118 29.3164 63.888 30.5564 65.0394C31.8259 66.1908 33.4792 66.9584 35.103 67.9917C35.103 69.0545 35.0734 70.324 35.103 71.623C35.162 73.6011 36.7562 75.1363 38.6457 75.1363C40.5647 75.1363 42.0999 73.6011 42.159 71.5935C42.1885 70.5897 42.218 69.6154 42.159 68.6116C42.0999 67.8736 42.3361 67.5488 43.0447 67.2536C47.5027 65.5413 50.2188 62.2642 50.9569 57.57C51.6949 52.9054 49.8645 49.1264 46.2627 46.2036C43.9599 44.3142 41.2142 43.6056 38.2915 43.3694C35.6049 43.1628 33.5087 40.7123 33.5678 37.9962C33.6268 35.3391 35.6639 33.0954 38.321 32.9182C40.7714 32.7411 42.3952 34.0106 43.517 36.1067C44.5208 37.9667 46.5284 38.6162 48.2998 37.701C50.0712 36.7858 50.6912 34.7782 49.7759 32.8887C48.7426 30.7335 47.2665 28.9917 45.2294 27.7517C44.2256 27.1317 42.7494 26.807 42.3066 25.9508C41.8047 24.9765 42.218 23.5004 42.1885 22.2604C42.1295 20.1938 40.5943 18.6291 38.6162 18.6586C36.6382 18.6881 35.162 20.2233 35.103 22.3195C35.0439 23.5299 35.0734 24.8289 35.0734 26.187Z" fill="#F37342"/>
</g>
<defs>
<clipPath id="clip0_22_51">
<rect width="78" height="105.781" fill="white"/>
</clipPath>
</defs>
</svg>
