<svg width="22" height="18" viewBox="0 0 22 18" fill="none" xmlns="http://www.w3.org/2000/svg">
<g clip-path="url(#clip0_212_528)">
<path d="M22.0001 0.386932C21.3979 0.958718 20.7905 1.52476 20.2004 2.10918C20.1062 2.20218 20.0465 2.37555 20.0465 2.51161C20.0391 6.65075 20.0385 10.7905 20.0488 14.9296C20.0494 15.0817 20.1349 15.2683 20.2423 15.3791C20.7349 15.8883 21.2429 16.3837 21.7602 16.8688C21.9249 17.0233 21.9961 17.18 21.937 17.4137C19.0844 17.4137 16.2254 17.4137 13.3533 17.4137C13.3131 17.2248 13.3166 17.0709 13.4819 16.9171C14.0221 16.4153 14.5428 15.8923 15.0767 15.3831C15.2277 15.239 15.2925 15.0771 15.292 14.8693C15.2891 11.6177 15.2902 8.36668 15.2897 5.11508C15.2897 5.07489 15.2857 5.03528 15.246 4.98476C15.2185 5.04447 15.1886 5.1036 15.1645 5.16502C13.5864 9.16179 12.0076 13.158 10.4358 17.157C10.3617 17.3459 10.2659 17.3941 10.0684 17.4096C9.76298 17.4343 9.6229 17.3252 9.50119 17.0468C9.04652 16.0049 8.56027 14.9767 8.08551 13.9433C6.73986 11.0121 5.39363 8.08136 4.04741 5.15067C4.01813 5.08695 3.98655 5.0238 3.91135 4.96294C3.91135 5.03528 3.91135 5.10761 3.91135 5.17995C3.91135 7.81556 3.92398 10.4512 3.90101 13.0862C3.89642 13.6259 4.04798 14.0449 4.39817 14.4468C5.08076 15.2287 5.72201 16.0462 6.39254 16.839C6.53433 17.0066 6.56361 17.1714 6.51941 17.3815C4.35167 17.3815 2.18565 17.3815 0.0202136 17.3815C-0.0314538 17.1708 0.0138987 17.0083 0.152827 16.8436C0.885357 15.9721 1.60526 15.0898 2.33205 14.2137C2.51747 13.9904 2.62368 13.7424 2.62253 13.449C2.61794 12.1889 2.61392 10.9282 2.61277 9.66813C2.61162 7.62726 2.6122 5.58582 2.61392 3.54496C2.61392 3.28949 2.52838 3.07594 2.36305 2.8796C1.69539 2.08507 1.02888 1.28882 0.376145 0.481081C0.291181 0.376024 0.291181 0.201503 0.240087 0.0155002C0.375571 0.0155002 0.445035 0.0155002 0.514499 0.0155002C2.49107 0.0155002 4.46763 0.0177966 6.4442 0.0114817C6.60954 0.0109076 6.679 0.0729085 6.74273 0.213559C8.31456 3.66207 9.891 7.10887 11.4669 10.5557C11.499 10.6263 11.534 10.6963 11.5828 10.7979C11.627 10.694 11.6615 10.6188 11.6919 10.5425C13.068 7.11863 14.4452 3.69594 15.8138 0.269819C15.893 0.0711862 15.9878 0.00918532 16.2007 0.0103335C18.0481 0.0200929 19.8961 0.0160743 21.7441 0.0149262C21.8291 0.0149262 21.9146 0.00516674 21.9996 0C22.0001 0.129169 22.0001 0.257763 22.0001 0.386932Z" fill="#7C96B6"/>
</g>
<defs>
<clipPath id="clip0_212_528">
<rect width="22" height="17.4131" fill="white"/>
</clipPath>
</defs>
</svg>
