<svg width="14" height="16" viewBox="0 0 14 16" fill="none" xmlns="http://www.w3.org/2000/svg">
<g clip-path="url(#clip0_3_23)">
<path d="M7.3056 0C7.69948 0.0978447 8.11379 0.14568 8.48385 0.301797C9.88755 0.894083 10.7434 1.9669 11.005 3.50328C11.1447 4.34459 11.0228 5.20952 10.6566 5.97634C10.2903 6.74317 9.6981 7.37328 8.96324 7.778C7.49148 8.58511 6.0261 8.50249 4.65388 7.52622C3.55176 6.74346 2.97157 5.62237 2.94647 4.25081C2.91882 2.72878 3.56282 1.53029 4.79595 0.674911C5.34042 0.297448 5.95081 0.090452 6.60545 0.022613C6.63562 0.017506 6.66535 0.00994432 6.69435 0L7.3056 0Z" fill="#303549"/>
<path d="M7.22607 16C5.20346 15.9826 3.59006 15.4521 2.16636 14.3671C1.32835 13.7333 0.619225 12.9387 0.0786796 12.0275C-0.00384092 11.8888 -0.0297881 11.7496 0.0408223 11.5987C0.749478 10.0836 1.89498 9.11215 3.49137 8.70425C3.61473 8.6725 3.74106 8.65511 3.86527 8.62815C4.11198 8.57466 4.32211 8.65032 4.52373 8.79557C5.32597 9.37264 6.22221 9.63095 7.19969 9.5892C7.95216 9.55702 8.67571 9.37177 9.28142 8.91559C9.73273 8.5764 10.1662 8.59814 10.6485 8.73556C12.0097 9.12302 13.0361 9.95318 13.7609 11.1847C14.0753 11.7187 14.0872 11.7292 13.7507 12.2458C12.937 13.4978 11.8851 14.4862 10.5571 15.1437C9.35544 15.7391 8.19887 16.003 7.22607 16Z" fill="#303549"/>
</g>
<defs>
<clipPath id="clip0_3_23">
<rect width="14" height="16" fill="white"/>
</clipPath>
</defs>
</svg>
