<svg width="15" height="15" viewBox="0 0 15 15" fill="none" xmlns="http://www.w3.org/2000/svg">
<path d="M13.4375 6.87502C13.4397 7.69994 13.2469 8.5137 12.875 9.25002C12.434 10.1324 11.7561 10.8745 10.9172 11.3933C10.0782 11.9121 9.1114 12.1871 8.125 12.1875C7.30008 12.1897 6.48632 11.9969 5.75 11.625L2.1875 12.8125L3.375 9.25002C3.00308 8.5137 2.81035 7.69994 2.8125 6.87502C2.81288 5.88862 3.08788 4.9218 3.6067 4.08286C4.12552 3.24392 4.86766 2.566 5.75 2.12502C6.48632 1.7531 7.30008 1.56037 8.125 1.56252H8.4375C9.74022 1.63439 10.9707 2.18424 11.8932 3.1068C12.8158 4.02937 13.3656 5.2598 13.4375 6.56252V6.87502Z" stroke="white" stroke-linecap="round" stroke-linejoin="round"/>
<path d="M7.8125 4.6875V7.1875" stroke="white" stroke-linecap="round" stroke-linejoin="round"/>
<path d="M7.8125 8.6875H7.81875" stroke="white" stroke-linecap="round" stroke-linejoin="round"/>
</svg>
