<svg width="14" height="15" viewBox="0 0 14 15" fill="none" xmlns="http://www.w3.org/2000/svg">
<path d="M6.10545 -5.54902e-05C9.26627 -0.00421242 11.9132 2.32938 12.28 5.41122C12.4692 7.00384 12.0961 8.46137 11.1634 9.76768C11.0813 9.88199 11.0886 9.93811 11.1862 10.0353C12.0384 10.8802 12.8871 11.7289 13.7324 12.5814C13.9709 12.8209 14.0618 13.1067 13.9605 13.4356C13.9207 13.5808 13.8405 13.7116 13.7291 13.8128C13.6178 13.914 13.48 13.9814 13.3317 14.0072C13.0122 14.0743 12.7518 13.9553 12.5263 13.7271C11.6996 12.8958 10.8672 12.0644 10.0421 11.233C9.93501 11.1239 9.8737 11.0995 9.73028 11.2013C6.03634 13.8425 0.870329 11.7022 0.0893475 7.20909C-0.476513 3.95526 1.70587 0.754946 4.92385 0.124133C5.31251 0.0429373 5.7084 0.00132883 6.10545 -5.54902e-05ZM6.16936 10.6832C7.06132 10.6844 7.93357 10.4209 8.67576 9.9262C9.41796 9.43149 9.99674 8.72776 10.3389 7.90403C10.681 7.0803 10.7712 6.1736 10.5979 5.29863C10.4246 4.42367 9.99569 3.61976 9.36542 2.98861C8.73514 2.35747 7.93183 1.92744 7.05711 1.75295C6.18238 1.57846 5.27556 1.66734 4.45136 2.00834C3.62716 2.34935 2.92262 2.92716 2.42688 3.66866C1.93115 4.41017 1.66648 5.28206 1.66638 6.17402C1.66419 6.76629 1.77911 7.35315 2.00455 7.90085C2.22998 8.44855 2.56148 8.94627 2.97997 9.36539C3.39846 9.7845 3.89568 10.1167 4.44304 10.343C4.9904 10.5693 5.57709 10.6851 6.16936 10.6838V10.6832Z" fill="#303549"/>
</svg>
