<svg width="78" height="76" viewBox="0 0 78 76" fill="none" xmlns="http://www.w3.org/2000/svg">
<g clip-path="url(#clip0_20_7)">
<path d="M78 52.3628C77.5174 53.788 76.8263 55.0684 75.3346 55.6139C74.6545 55.8589 73.9086 56.0036 73.1847 56.0036C64.7825 56.0259 56.3803 56.0259 47.9781 56.0147C44.9068 56.0147 43.1298 54.1665 43.1188 51.049C43.1188 48.0874 43.1188 45.1258 43.1188 42.153C43.1188 39.0467 44.9287 37.2207 48.011 37.2207C56.1828 37.2207 64.3656 37.2207 72.5375 37.2207C75.7623 37.2207 76.7934 37.9221 78 40.9172C78 44.7361 78 48.5439 78 52.3628ZM53.7258 49.7798C55.9196 49.7241 56.6545 48.9893 56.6545 46.7847C56.6545 46.5287 56.6655 46.2726 56.6435 46.0165C56.5777 44.8586 55.8208 43.979 54.7569 43.8454C52.6289 43.567 51.3346 44.0681 50.9287 45.3262C50.9177 45.3707 50.8848 45.4264 50.8848 45.4709C50.8848 46.3394 50.7971 47.219 50.9177 48.0763C51.0165 48.8222 51.5649 49.3567 52.2998 49.5682C52.7715 49.713 53.2541 49.713 53.7258 49.7798Z" fill="#F37342"/>
<path d="M73.4369 34.1255C73.1079 34.1255 72.8117 34.1255 72.5155 34.1255C64.2888 34.1255 56.0622 34.1143 47.8355 34.1366C44.6325 34.1477 42.1755 35.5395 40.8263 38.5233C40.3437 39.5811 40.1353 40.8503 40.1024 42.0305C40.0037 45.1146 40.0585 48.2098 40.0695 51.3051C40.0804 55.8477 43.3272 59.1322 47.8245 59.1433C56.0512 59.1545 64.2779 59.1433 72.5046 59.1433C72.8007 59.1433 73.0969 59.1433 73.4479 59.1433C73.4698 59.4662 73.4918 59.7112 73.4918 59.9561C73.4918 63.6414 73.5027 67.3268 73.4918 71.0121C73.4808 74.1964 71.7148 75.9889 68.5777 75.9889C47.3528 75.9889 26.128 75.9889 4.90311 75.9889C1.78793 75.9889 0 74.1741 0 70.9898C0 54.8122 0 38.6235 0 22.446C0 19.4287 1.80987 17.5693 4.78245 17.5693C26.106 17.5693 47.4296 17.5693 68.7532 17.5693C71.5832 17.5693 73.426 19.284 73.4698 22.0897C73.5247 25.9532 73.4808 29.8166 73.4808 33.6801C73.4808 33.8026 73.4589 33.925 73.4369 34.1255Z" fill="#F37342"/>
<path d="M64.5521 14.4296C52.5192 14.4296 40.6289 14.4296 28.7386 14.4296C28.7276 14.3962 28.7276 14.3516 28.7166 14.3182C30.1426 13.9174 31.5685 13.5055 33.0055 13.1158C41.1225 10.8667 49.2395 8.62881 57.3565 6.37976C60.34 5.55585 62.5119 6.80285 63.3345 9.83127C63.7404 11.3343 64.1353 12.8486 64.5521 14.4296Z" fill="#F37342"/>
<path d="M14.3145 14.307C14.49 14.2068 14.6545 14.1066 14.83 14.0175C23.7038 9.55279 32.5777 5.07696 41.4625 0.612265C43.6234 -0.478857 45.883 -0.122572 47.1444 1.68112C48.011 2.92812 48.6033 4.36439 49.3602 5.8118C47.6709 6.29056 46.1134 6.72478 44.5558 7.159C35.9781 9.53052 27.4113 11.9577 18.8117 14.2513C17.4077 14.6298 15.8501 14.4517 14.3693 14.5408C14.3474 14.4628 14.3254 14.3849 14.3145 14.307Z" fill="#F37342"/>
</g>
<defs>
<clipPath id="clip0_20_7">
<rect width="78" height="76" fill="white"/>
</clipPath>
</defs>
</svg>
