<svg width="18" height="20" viewBox="0 0 18 20" fill="none" xmlns="http://www.w3.org/2000/svg">
<g clip-path="url(#clip0_45_846)">
<path d="M14.984 0C15.1455 0.0351562 15.3111 0.0703125 15.4726 0.109375C17.0029 0.5 18.0769 1.89453 17.9962 3.38281C17.9073 5 16.7202 6.29688 15.0931 6.51172C14.0231 6.65625 13.0863 6.35547 12.2869 5.64844C12.2344 5.60156 12.1779 5.55078 12.1254 5.5C12.1213 5.49609 12.1132 5.49609 12.089 5.48438C10.2478 6.58594 8.39858 7.69531 6.54125 8.80859C6.84407 9.60156 6.84407 10.3906 6.54125 11.1836C8.39454 12.2969 10.2438 13.4023 12.0971 14.5117C12.2102 14.4102 12.3232 14.3086 12.4403 14.2148C13.5466 13.3164 15.1011 13.1953 16.3407 13.9062C17.5803 14.6172 18.2142 16.0078 17.9275 17.3867C17.6529 18.7188 16.5062 19.7578 15.0971 19.957C15.0608 19.9609 15.0244 19.9805 14.984 19.9922C14.7418 19.9922 14.4995 19.9922 14.2573 19.9922C13.906 19.8906 13.5345 19.8281 13.2034 19.6836C11.6489 19.0117 10.8777 17.3164 11.3905 15.7422C11.443 15.5781 11.4228 15.5 11.2613 15.4062C9.51298 14.3711 7.77274 13.3203 6.02846 12.2773C5.98809 12.2539 5.94771 12.2305 5.89118 12.1992C5.05538 13.0195 4.04596 13.3945 2.85888 13.2227C2.00693 13.1016 1.30034 12.6992 0.759288 12.0508C-0.355112 10.7227 -0.229944 8.83594 1.05 7.63672C2.28553 6.48047 4.43358 6.32422 5.90329 7.79297C6.12537 7.66016 6.35551 7.52344 6.58162 7.38672C8.16036 6.44141 9.73505 5.49609 11.3138 4.55469C11.4268 4.48828 11.447 4.43359 11.4067 4.30859C10.7526 2.32422 12.0244 0.355469 14.1644 0.03125C14.1967 0.0273438 14.229 0.0117188 14.2573 0C14.4995 0 14.7418 0 14.984 0ZM14.6085 18.8008C15.7916 18.8047 16.7566 17.8828 16.7606 16.7383C16.7687 15.5859 15.8077 14.6484 14.6166 14.6445C13.4336 14.6406 12.4766 15.5586 12.4645 16.707C12.4565 17.8633 13.4134 18.7969 14.6085 18.8008ZM14.6166 1.19922C13.4336 1.19531 12.4766 2.11328 12.4686 3.26172C12.4565 4.40234 13.4134 5.34375 14.5924 5.35156C15.7835 5.35938 16.7606 4.43359 16.7647 3.28516C16.7647 2.13281 15.8118 1.20312 14.6166 1.19922ZM1.23977 10.0039C1.24381 11.1523 2.1967 12.0742 3.37974 12.0742C4.57086 12.0742 5.53587 11.1445 5.53183 9.99609C5.53183 8.84375 4.56278 7.91797 3.36763 7.92578C2.18863 7.92969 1.23573 8.85938 1.23977 10.0039Z" fill="white"/>
</g>
<defs>
<clipPath id="clip0_45_846">
<rect width="18" height="20" fill="white"/>
</clipPath>
</defs>
</svg>
