<svg width="14" height="15" viewBox="0 0 14 15" fill="none" xmlns="http://www.w3.org/2000/svg">
<g clip-path="url(#clip0_26_155)">
<path d="M14 2.84906C13.4794 3.09375 12.9246 3.25594 12.3462 3.33469C12.9412 2.95406 13.3954 2.35594 13.6089 1.635C13.0541 1.98937 12.4416 2.23969 11.7889 2.37938C11.2621 1.77844 10.5114 1.40625 9.69238 1.40625C8.10337 1.40625 6.82412 2.78813 6.82412 4.48219C6.82412 4.72594 6.84338 4.96031 6.89062 5.18344C4.5045 5.05875 2.39313 3.83344 0.97475 1.96688C0.727125 2.42719 0.581875 2.95406 0.581875 3.52125C0.581875 4.58625 1.09375 5.53031 1.85675 6.07687C1.39562 6.0675 0.94325 5.92406 0.56 5.69812C0.56 5.7075 0.56 5.71969 0.56 5.73187C0.56 7.22625 1.55487 8.4675 2.8595 8.75344C2.62587 8.82188 2.37125 8.85469 2.107 8.85469C1.92325 8.85469 1.73775 8.84344 1.56362 8.80219C1.9355 10.02 2.99075 10.9153 4.2455 10.9444C3.269 11.7628 2.02912 12.2559 0.686875 12.2559C0.4515 12.2559 0.22575 12.2447 0 12.2137C1.27137 13.0922 2.77813 13.5938 4.403 13.5938C9.6845 13.5938 12.572 8.90625 12.572 4.84312C12.572 4.70719 12.5676 4.57594 12.5615 4.44563C13.1311 4.0125 13.6097 3.47156 14 2.84906Z" fill="#222222"/>
</g>
<defs>
<clipPath id="clip0_26_155">
<rect width="14" height="15" fill="white"/>
</clipPath>
</defs>
</svg>
