<svg width="22" height="19" viewBox="0 0 22 19" fill="none" xmlns="http://www.w3.org/2000/svg">
<g clip-path="url(#clip0_213_531)">
<path d="M0 16.0168C2.4171 16.1778 4.60396 15.6004 6.58946 14.0984C4.50725 13.9079 3.13306 12.8563 2.36513 10.9271C3.04357 10.9271 3.67725 10.9271 4.31094 10.9271C4.31815 10.8946 4.32609 10.8622 4.33331 10.8297C3.30917 10.5677 2.45824 10.0387 1.80651 9.21587C1.15478 8.39237 0.821337 7.45194 0.806902 6.34768C1.44564 6.64648 2.07283 6.87094 2.78158 6.8796C0.858868 5.19146 0.265599 3.23049 1.44853 0.823498C3.91182 3.70179 6.97559 5.31632 10.7055 5.55738C10.7055 5.05866 10.6738 4.59386 10.7106 4.13483C10.9011 1.76537 12.9184 -0.0447535 15.2943 0.000715971C16.4917 0.0238116 17.5209 0.456855 18.3841 1.28108C18.501 1.39223 18.5977 1.42615 18.7616 1.38573C19.6046 1.17859 20.4122 0.883402 21.1736 0.465515C21.227 0.435924 21.2848 0.414272 21.4067 0.358698C21.0509 1.42182 20.4273 2.19769 19.5649 2.83282C19.8283 2.78085 20.0939 2.73755 20.3552 2.67476C20.6258 2.61052 20.895 2.53474 21.1599 2.45102C21.4219 2.36802 21.6781 2.26914 21.9993 2.1551C21.6088 2.77363 21.1772 3.27308 20.6929 3.72705C20.4504 3.9544 20.1978 4.17453 19.9315 4.37301C19.7828 4.48343 19.7395 4.59602 19.7453 4.77646C19.907 9.78171 16.9803 14.7256 12.4882 16.771C8.30792 18.6742 4.17092 18.4382 0.17466 16.1323C0.114756 16.0976 0.0584607 16.0551 0 16.0168Z" fill="#7C96B6"/>
</g>
<defs>
<clipPath id="clip0_213_531">
<rect width="22" height="18.047" fill="white"/>
</clipPath>
</defs>
</svg>
