<svg width="15" height="20" viewBox="0 0 15 20" fill="none" xmlns="http://www.w3.org/2000/svg">
<g clip-path="url(#clip0_45_835)">
<path d="M0 0C5 0 10 0 15 0C14.9947 0.0989583 14.9788 0.192708 14.9788 0.291667C14.9788 6.76562 14.9788 13.2396 14.9788 19.7135C14.9788 19.8125 14.9682 19.9062 14.9576 20.0052C14.947 20.0052 14.9311 20.0052 14.9205 20.0052C14.878 19.9792 14.8409 19.9427 14.7932 19.9271C12.4125 18.8958 10.0318 17.8594 7.65642 16.8281C7.53977 16.776 7.45493 16.7812 7.34358 16.8281C5.0053 17.8437 2.67232 18.8594 0.33404 19.875C0.243902 19.9115 0.164369 19.9635 0.0795334 20.0104C0.0689289 20.0104 0.0530223 20.0104 0.0424178 20.0104C0.0371156 19.9115 0.0212089 19.8177 0.0212089 19.7187C0.0212089 13.2448 0.0212089 6.77083 0.0212089 0.296875C0.0212089 0.192708 0.00530223 0.0989583 0 0ZM1.21951 18.1875C1.29905 18.1562 1.35737 18.1354 1.41569 18.1146C3.38282 17.2604 5.35525 16.4062 7.32238 15.5469C7.44963 15.4948 7.54507 15.4896 7.67232 15.5417C9.60233 16.3854 11.5376 17.224 13.4677 18.0625C13.5631 18.1042 13.6585 18.1406 13.7752 18.1927C13.7752 12.5052 13.7752 6.84896 13.7752 1.1875C9.58112 1.1875 5.40297 1.1875 1.21951 1.1875C1.21951 6.85417 1.21951 12.5104 1.21951 18.1875Z" fill="white"/>
<path d="M10.6416 13.0884C10.0053 12.8123 9.39556 12.5519 8.7858 12.2863C8.41995 12.1248 8.04879 11.9738 7.68294 11.8019C7.55038 11.7394 7.44434 11.7498 7.31178 11.8071C6.4051 12.2082 5.48782 12.604 4.57584 12.9998C4.51221 13.0259 4.44328 13.0519 4.34784 13.0884C4.38496 12.7082 4.42207 12.3436 4.45919 11.9842C4.53342 11.2863 4.60765 10.5884 4.67128 9.88525C4.68188 9.7915 4.63416 9.6665 4.57053 9.59358C3.93427 8.88004 3.2874 8.17171 2.64583 7.46338C2.5716 7.38004 2.49736 7.29671 2.40723 7.19254C2.91094 7.08317 3.39344 6.979 3.87064 6.87483C4.44328 6.75504 5.02122 6.63004 5.59386 6.51546C5.72112 6.48942 5.79535 6.42692 5.86428 6.31754C6.3998 5.40609 6.94063 4.49463 7.49736 3.55713C7.54508 3.63005 7.5875 3.68734 7.61931 3.74463C8.12303 4.59359 8.62674 5.43734 9.11984 6.2915C9.19938 6.42692 9.29482 6.49463 9.44858 6.52588C10.4454 6.729 11.4369 6.94254 12.4284 7.15608C12.4708 7.1665 12.5186 7.18213 12.5875 7.20296C12.5133 7.28629 12.4496 7.354 12.386 7.42692C11.7391 8.14046 11.0923 8.854 10.4401 9.56233C10.3341 9.68212 10.2969 9.7915 10.3181 9.94775C10.4242 10.9113 10.5249 11.8748 10.6257 12.8384C10.6363 12.9061 10.6363 12.979 10.6416 13.0884ZM7.50267 5.88004C7.20044 6.39046 6.91412 6.86442 6.6384 7.34879C6.56417 7.47379 6.47934 7.5415 6.33618 7.56233C6.11348 7.59879 5.89609 7.65088 5.6787 7.69775C5.34996 7.77067 5.01592 7.83838 4.66067 7.9165C4.97881 8.27067 5.25982 8.61442 5.57265 8.9165C5.84837 9.18212 6.00214 9.45817 5.88549 9.84358C5.85898 9.93733 5.86428 10.0363 5.85367 10.1352C5.82186 10.4842 5.78474 10.8332 5.74763 11.2082C5.84307 11.1717 5.9067 11.1457 5.97562 11.1196C6.43692 10.9217 6.89291 10.7134 7.3542 10.5259C7.44434 10.4894 7.5769 10.4894 7.66703 10.5259C8.11772 10.7082 8.56311 10.9113 9.0085 11.104C9.08273 11.1352 9.16226 11.1665 9.2471 11.203C9.2471 11.1144 9.2524 11.0519 9.2471 10.9842C9.19938 10.5363 9.15696 10.0936 9.10394 9.64566C9.07743 9.43212 9.11454 9.26546 9.27361 9.104C9.60765 8.76546 9.92048 8.40087 10.2439 8.04671C10.2757 8.01025 10.3022 7.96858 10.3394 7.9165C9.76141 7.7915 9.20998 7.6665 8.65325 7.55713C8.52069 7.53108 8.44646 7.46858 8.38283 7.35921C8.09121 6.87483 7.80489 6.39046 7.50267 5.88004Z" fill="white"/>
</g>
<defs>
<clipPath id="clip0_45_835">
<rect width="15" height="20" fill="white"/>
</clipPath>
</defs>
</svg>
