<svg width="17" height="18" viewBox="0 0 17 18" fill="none" xmlns="http://www.w3.org/2000/svg">
<path d="M16.132 4.78239C15.9484 4.05945 15.4101 3.48957 14.7274 3.29491C13.4802 2.93359 8.4915 2.93359 8.4915 2.93359C8.4915 2.93359 3.50296 2.93359 2.2558 3.28121C1.58626 3.47567 1.03481 4.05956 0.851154 4.78239C0.522949 6.10281 0.522949 8.84119 0.522949 8.84119C0.522949 8.84119 0.522949 11.5934 0.851154 12.9C1.035 13.6228 1.57313 14.1927 2.2559 14.3874C3.51609 14.7488 8.4917 14.7488 8.4917 14.7488C8.4917 14.7488 13.4802 14.7488 14.7274 14.4012C15.4102 14.2066 15.9484 13.6367 16.1322 12.9139C16.4604 11.5934 16.4604 8.85509 16.4604 8.85509C16.4604 8.85509 16.4735 6.10281 16.132 4.78239ZM6.9032 11.371V6.31138L11.0516 8.84119L6.9032 11.371Z" fill="black"/>
</svg>
